%TF.GenerationSoftware,KiCad,Pcbnew,(7.0.0)*%
%TF.CreationDate,2023-03-05T21:21:49+00:00*%
%TF.ProjectId,connector,636f6e6e-6563-4746-9f72-2e6b69636164,rev?*%
%TF.SameCoordinates,Original*%
%TF.FileFunction,Paste,Top*%
%TF.FilePolarity,Positive*%
%FSLAX46Y46*%
G04 Gerber Fmt 4.6, Leading zero omitted, Abs format (unit mm)*
G04 Created by KiCad (PCBNEW (7.0.0)) date 2023-03-05 21:21:49*
%MOMM*%
%LPD*%
G01*
G04 APERTURE LIST*
G04 Aperture macros list*
%AMRoundRect*
0 Rectangle with rounded corners*
0 $1 Rounding radius*
0 $2 $3 $4 $5 $6 $7 $8 $9 X,Y pos of 4 corners*
0 Add a 4 corners polygon primitive as box body*
4,1,4,$2,$3,$4,$5,$6,$7,$8,$9,$2,$3,0*
0 Add four circle primitives for the rounded corners*
1,1,$1+$1,$2,$3*
1,1,$1+$1,$4,$5*
1,1,$1+$1,$6,$7*
1,1,$1+$1,$8,$9*
0 Add four rect primitives between the rounded corners*
20,1,$1+$1,$2,$3,$4,$5,0*
20,1,$1+$1,$4,$5,$6,$7,0*
20,1,$1+$1,$6,$7,$8,$9,0*
20,1,$1+$1,$8,$9,$2,$3,0*%
G04 Aperture macros list end*
%ADD10RoundRect,0.250000X-0.650000X0.325000X-0.650000X-0.325000X0.650000X-0.325000X0.650000X0.325000X0*%
%ADD11RoundRect,0.075000X0.075000X-0.712500X0.075000X0.712500X-0.075000X0.712500X-0.075000X-0.712500X0*%
%ADD12RoundRect,0.250000X-0.375000X-0.625000X0.375000X-0.625000X0.375000X0.625000X-0.375000X0.625000X0*%
%ADD13RoundRect,0.250000X-0.450000X0.350000X-0.450000X-0.350000X0.450000X-0.350000X0.450000X0.350000X0*%
G04 APERTURE END LIST*
D10*
%TO.C,C1*%
X150082000Y-90473000D03*
X150082000Y-93423000D03*
%TD*%
D11*
%TO.C,U1*%
X137280000Y-99258000D03*
X137780000Y-99258000D03*
X138280000Y-99258000D03*
X138780000Y-99258000D03*
X139280000Y-99258000D03*
X139780000Y-99258000D03*
X140280000Y-99258000D03*
X140780000Y-99258000D03*
X141280000Y-99258000D03*
X141780000Y-99258000D03*
X142280000Y-99258000D03*
X142780000Y-99258000D03*
X143280000Y-99258000D03*
X143780000Y-99258000D03*
X144280000Y-99258000D03*
X144780000Y-99258000D03*
X145280000Y-99258000D03*
X145780000Y-99258000D03*
X146280000Y-99258000D03*
X146780000Y-99258000D03*
X146780000Y-79883000D03*
X146280000Y-79883000D03*
X145780000Y-79883000D03*
X145280000Y-79883000D03*
X144780000Y-79883000D03*
X144280000Y-79883000D03*
X143780000Y-79883000D03*
X143280000Y-79883000D03*
X142780000Y-79883000D03*
X142280000Y-79883000D03*
X141780000Y-79883000D03*
X141280000Y-79883000D03*
X140780000Y-79883000D03*
X140280000Y-79883000D03*
X139780000Y-79883000D03*
X139280000Y-79883000D03*
X138780000Y-79883000D03*
X138280000Y-79883000D03*
X137780000Y-79883000D03*
X137280000Y-79883000D03*
%TD*%
D12*
%TO.C,D1*%
X139411000Y-113284000D03*
X142211000Y-113284000D03*
%TD*%
D13*
%TO.C,R1*%
X142335000Y-108204000D03*
X142335000Y-110204000D03*
%TD*%
M02*
