%TF.GenerationSoftware,KiCad,Pcbnew,(7.0.0)*%
%TF.CreationDate,2023-03-05T21:21:49+00:00*%
%TF.ProjectId,connector,636f6e6e-6563-4746-9f72-2e6b69636164,rev?*%
%TF.SameCoordinates,Original*%
%TF.FileFunction,Soldermask,Top*%
%TF.FilePolarity,Negative*%
%FSLAX46Y46*%
G04 Gerber Fmt 4.6, Leading zero omitted, Abs format (unit mm)*
G04 Created by KiCad (PCBNEW (7.0.0)) date 2023-03-05 21:21:49*
%MOMM*%
%LPD*%
G01*
G04 APERTURE LIST*
G04 Aperture macros list*
%AMRoundRect*
0 Rectangle with rounded corners*
0 $1 Rounding radius*
0 $2 $3 $4 $5 $6 $7 $8 $9 X,Y pos of 4 corners*
0 Add a 4 corners polygon primitive as box body*
4,1,4,$2,$3,$4,$5,$6,$7,$8,$9,$2,$3,0*
0 Add four circle primitives for the rounded corners*
1,1,$1+$1,$2,$3*
1,1,$1+$1,$4,$5*
1,1,$1+$1,$6,$7*
1,1,$1+$1,$8,$9*
0 Add four rect primitives between the rounded corners*
20,1,$1+$1,$2,$3,$4,$5,0*
20,1,$1+$1,$4,$5,$6,$7,0*
20,1,$1+$1,$6,$7,$8,$9,0*
20,1,$1+$1,$8,$9,$2,$3,0*%
G04 Aperture macros list end*
%ADD10C,2.500000*%
%ADD11RoundRect,0.250000X-0.650000X0.325000X-0.650000X-0.325000X0.650000X-0.325000X0.650000X0.325000X0*%
%ADD12RoundRect,0.075000X0.075000X-0.712500X0.075000X0.712500X-0.075000X0.712500X-0.075000X-0.712500X0*%
%ADD13RoundRect,0.250000X-0.375000X-0.625000X0.375000X-0.625000X0.375000X0.625000X-0.375000X0.625000X0*%
%ADD14RoundRect,0.250000X-0.450000X0.350000X-0.450000X-0.350000X0.450000X-0.350000X0.450000X0.350000X0*%
%ADD15R,0.762000X5.588000*%
%ADD16R,0.762000X2.286000*%
%ADD17R,0.762000X3.556000*%
%ADD18R,0.762000X4.318000*%
%ADD19R,0.762000X2.794000*%
%ADD20R,0.762000X5.080000*%
%ADD21R,0.762000X8.382000*%
%ADD22R,0.762000X4.572000*%
%ADD23R,0.762000X3.302000*%
G04 APERTURE END LIST*
D10*
%TO.C,REF\u002A\u002A*%
X161290000Y-76708000D03*
%TD*%
%TO.C,REF\u002A\u002A*%
X147828000Y-76708000D03*
%TD*%
%TO.C,REF\u002A\u002A*%
X134366000Y-76708000D03*
%TD*%
%TO.C,REF\u002A\u002A*%
X120904000Y-76708000D03*
%TD*%
D11*
%TO.C,C1*%
X150082000Y-90473000D03*
X150082000Y-93423000D03*
%TD*%
D12*
%TO.C,U1*%
X137280000Y-99258000D03*
X137780000Y-99258000D03*
X138280000Y-99258000D03*
X138780000Y-99258000D03*
X139280000Y-99258000D03*
X139780000Y-99258000D03*
X140280000Y-99258000D03*
X140780000Y-99258000D03*
X141280000Y-99258000D03*
X141780000Y-99258000D03*
X142280000Y-99258000D03*
X142780000Y-99258000D03*
X143280000Y-99258000D03*
X143780000Y-99258000D03*
X144280000Y-99258000D03*
X144780000Y-99258000D03*
X145280000Y-99258000D03*
X145780000Y-99258000D03*
X146280000Y-99258000D03*
X146780000Y-99258000D03*
X146780000Y-79883000D03*
X146280000Y-79883000D03*
X145780000Y-79883000D03*
X145280000Y-79883000D03*
X144780000Y-79883000D03*
X144280000Y-79883000D03*
X143780000Y-79883000D03*
X143280000Y-79883000D03*
X142780000Y-79883000D03*
X142280000Y-79883000D03*
X141780000Y-79883000D03*
X141280000Y-79883000D03*
X140780000Y-79883000D03*
X140280000Y-79883000D03*
X139780000Y-79883000D03*
X139280000Y-79883000D03*
X138780000Y-79883000D03*
X138280000Y-79883000D03*
X137780000Y-79883000D03*
X137280000Y-79883000D03*
%TD*%
D13*
%TO.C,D1*%
X139411000Y-113284000D03*
X142211000Y-113284000D03*
%TD*%
D14*
%TO.C,R1*%
X142335000Y-108204000D03*
X142335000Y-110204000D03*
%TD*%
D15*
%TO.C,J1*%
X164464999Y-68706999D03*
D16*
X164464999Y-64261999D03*
D15*
X163194999Y-68706999D03*
D16*
X163194999Y-64261999D03*
D15*
X161924999Y-68706999D03*
D16*
X161924999Y-64261999D03*
D15*
X160654999Y-68706999D03*
D16*
X160654999Y-64261999D03*
D15*
X159384999Y-68706999D03*
D16*
X159384999Y-64261999D03*
D15*
X158114999Y-68706999D03*
D16*
X158114999Y-64261999D03*
D15*
X156844999Y-68706999D03*
D16*
X156844999Y-64261999D03*
D15*
X155574999Y-68706999D03*
D16*
X155574999Y-64261999D03*
D15*
X154304999Y-68706999D03*
D16*
X154304999Y-64261999D03*
D15*
X153034999Y-68706999D03*
D16*
X153034999Y-64261999D03*
D15*
X151764999Y-68706999D03*
D16*
X151764999Y-64261999D03*
D17*
X150494999Y-69722999D03*
D18*
X150494999Y-65277999D03*
D17*
X149224999Y-69722999D03*
D18*
X149224999Y-65277999D03*
D17*
X147954999Y-69722999D03*
D18*
X147954999Y-65277999D03*
D19*
X146684999Y-70103999D03*
D20*
X146684999Y-65658999D03*
D21*
X145414999Y-67309999D03*
X144144999Y-67309999D03*
D15*
X142874999Y-68706999D03*
D16*
X142874999Y-64261999D03*
D22*
X141604999Y-69214999D03*
D23*
X141604999Y-64769999D03*
D22*
X140334999Y-69214999D03*
D23*
X140334999Y-64769999D03*
D22*
X139064999Y-69214999D03*
D23*
X139064999Y-64769999D03*
D15*
X137794999Y-68706999D03*
D16*
X137794999Y-64261999D03*
D15*
X136524999Y-68706999D03*
D16*
X136524999Y-64261999D03*
D15*
X135254999Y-68706999D03*
D16*
X135254999Y-64261999D03*
D15*
X133984999Y-68706999D03*
D16*
X133984999Y-64261999D03*
D15*
X132714999Y-68706999D03*
D16*
X132714999Y-64261999D03*
D15*
X131444999Y-68706999D03*
D16*
X131444999Y-64261999D03*
D15*
X130174999Y-68706999D03*
D16*
X130174999Y-64261999D03*
D15*
X128904999Y-68706999D03*
D16*
X128904999Y-64261999D03*
D15*
X127634999Y-68706999D03*
D16*
X127634999Y-64261999D03*
D17*
X126364999Y-69722999D03*
D18*
X126364999Y-65277999D03*
D17*
X125094999Y-69722999D03*
D18*
X125094999Y-65277999D03*
D17*
X123824999Y-69722999D03*
D18*
X123824999Y-65277999D03*
D17*
X122554999Y-69722999D03*
D18*
X122554999Y-65277999D03*
D17*
X121284999Y-69722999D03*
D18*
X121284999Y-65277999D03*
D15*
X120014999Y-68706999D03*
D16*
X120014999Y-64261999D03*
D15*
X118744999Y-68706999D03*
D16*
X118744999Y-64261999D03*
D15*
X117474999Y-68706999D03*
D16*
X117474999Y-64261999D03*
%TD*%
M02*
