%TF.GenerationSoftware,KiCad,Pcbnew,(7.0.0)*%
%TF.CreationDate,2023-03-25T14:20:40+00:00*%
%TF.ProjectId,connector,636f6e6e-6563-4746-9f72-2e6b69636164,rev?*%
%TF.SameCoordinates,Original*%
%TF.FileFunction,Legend,Top*%
%TF.FilePolarity,Positive*%
%FSLAX46Y46*%
G04 Gerber Fmt 4.6, Leading zero omitted, Abs format (unit mm)*
G04 Created by KiCad (PCBNEW (7.0.0)) date 2023-03-25 14:20:40*
%MOMM*%
%LPD*%
G01*
G04 APERTURE LIST*
%ADD10C,0.120000*%
%ADD11C,0.200000*%
%ADD12C,0.150000*%
G04 APERTURE END LIST*
D10*
X116554000Y-79756000D02*
X117062000Y-79756000D01*
X116554000Y-80264000D02*
X117062000Y-80264000D01*
X116554000Y-77978000D02*
X116554000Y-79248000D01*
X116554000Y-80010000D02*
X117062000Y-80010000D01*
X116046000Y-77978000D02*
X116554000Y-77978000D01*
X116554000Y-80010000D02*
X116554000Y-80264000D01*
X117094000Y-76835000D02*
X116078000Y-77851000D01*
X116554000Y-79502000D02*
X117062000Y-79502000D01*
X117062000Y-80010000D02*
X116554000Y-80010000D01*
X116554000Y-79502000D02*
X116554000Y-79756000D01*
X116554000Y-79248000D02*
X117062000Y-79248000D01*
X118078000Y-77978000D02*
X117570000Y-77978000D01*
X117570000Y-79756000D02*
X117062000Y-79756000D01*
X117570000Y-79502000D02*
X117062000Y-79502000D01*
X117570000Y-77978000D02*
X117570000Y-79248000D01*
X117570000Y-80010000D02*
X117062000Y-80010000D01*
X117570000Y-79248000D02*
X117062000Y-79248000D01*
X117094000Y-76835000D02*
X118110000Y-77851000D01*
X117570000Y-80264000D02*
X117062000Y-80264000D01*
X117570000Y-80010000D02*
X117570000Y-80264000D01*
X117570000Y-79502000D02*
X117570000Y-79756000D01*
D11*
X116717714Y-108045333D02*
X117527238Y-108045333D01*
X117527238Y-108045333D02*
X117622476Y-108092952D01*
X117622476Y-108092952D02*
X117670095Y-108140571D01*
X117670095Y-108140571D02*
X117717714Y-108235809D01*
X117717714Y-108235809D02*
X117717714Y-108378666D01*
X117717714Y-108378666D02*
X117670095Y-108473904D01*
X117336761Y-108045333D02*
X117384380Y-108140571D01*
X117384380Y-108140571D02*
X117384380Y-108331047D01*
X117384380Y-108331047D02*
X117336761Y-108426285D01*
X117336761Y-108426285D02*
X117289142Y-108473904D01*
X117289142Y-108473904D02*
X117193904Y-108521523D01*
X117193904Y-108521523D02*
X116908190Y-108521523D01*
X116908190Y-108521523D02*
X116812952Y-108473904D01*
X116812952Y-108473904D02*
X116765333Y-108426285D01*
X116765333Y-108426285D02*
X116717714Y-108331047D01*
X116717714Y-108331047D02*
X116717714Y-108140571D01*
X116717714Y-108140571D02*
X116765333Y-108045333D01*
X117384380Y-107569142D02*
X116717714Y-107569142D01*
X116384380Y-107569142D02*
X116432000Y-107616761D01*
X116432000Y-107616761D02*
X116479619Y-107569142D01*
X116479619Y-107569142D02*
X116432000Y-107521523D01*
X116432000Y-107521523D02*
X116384380Y-107569142D01*
X116384380Y-107569142D02*
X116479619Y-107569142D01*
X116717714Y-107235809D02*
X116717714Y-106854857D01*
X116384380Y-107092952D02*
X117241523Y-107092952D01*
X117241523Y-107092952D02*
X117336761Y-107045333D01*
X117336761Y-107045333D02*
X117384380Y-106950095D01*
X117384380Y-106950095D02*
X117384380Y-106854857D01*
X117384380Y-106521523D02*
X116384380Y-106521523D01*
X117384380Y-106092952D02*
X116860571Y-106092952D01*
X116860571Y-106092952D02*
X116765333Y-106140571D01*
X116765333Y-106140571D02*
X116717714Y-106235809D01*
X116717714Y-106235809D02*
X116717714Y-106378666D01*
X116717714Y-106378666D02*
X116765333Y-106473904D01*
X116765333Y-106473904D02*
X116812952Y-106521523D01*
X116717714Y-105188190D02*
X117384380Y-105188190D01*
X116717714Y-105616761D02*
X117241523Y-105616761D01*
X117241523Y-105616761D02*
X117336761Y-105569142D01*
X117336761Y-105569142D02*
X117384380Y-105473904D01*
X117384380Y-105473904D02*
X117384380Y-105331047D01*
X117384380Y-105331047D02*
X117336761Y-105235809D01*
X117336761Y-105235809D02*
X117289142Y-105188190D01*
X117384380Y-104711999D02*
X116384380Y-104711999D01*
X116765333Y-104711999D02*
X116717714Y-104616761D01*
X116717714Y-104616761D02*
X116717714Y-104426285D01*
X116717714Y-104426285D02*
X116765333Y-104331047D01*
X116765333Y-104331047D02*
X116812952Y-104283428D01*
X116812952Y-104283428D02*
X116908190Y-104235809D01*
X116908190Y-104235809D02*
X117193904Y-104235809D01*
X117193904Y-104235809D02*
X117289142Y-104283428D01*
X117289142Y-104283428D02*
X117336761Y-104331047D01*
X117336761Y-104331047D02*
X117384380Y-104426285D01*
X117384380Y-104426285D02*
X117384380Y-104616761D01*
X117384380Y-104616761D02*
X117336761Y-104711999D01*
X117289142Y-103807237D02*
X117336761Y-103759618D01*
X117336761Y-103759618D02*
X117384380Y-103807237D01*
X117384380Y-103807237D02*
X117336761Y-103854856D01*
X117336761Y-103854856D02*
X117289142Y-103807237D01*
X117289142Y-103807237D02*
X117384380Y-103807237D01*
X117336761Y-102902476D02*
X117384380Y-102997714D01*
X117384380Y-102997714D02*
X117384380Y-103188190D01*
X117384380Y-103188190D02*
X117336761Y-103283428D01*
X117336761Y-103283428D02*
X117289142Y-103331047D01*
X117289142Y-103331047D02*
X117193904Y-103378666D01*
X117193904Y-103378666D02*
X116908190Y-103378666D01*
X116908190Y-103378666D02*
X116812952Y-103331047D01*
X116812952Y-103331047D02*
X116765333Y-103283428D01*
X116765333Y-103283428D02*
X116717714Y-103188190D01*
X116717714Y-103188190D02*
X116717714Y-102997714D01*
X116717714Y-102997714D02*
X116765333Y-102902476D01*
X117384380Y-102331047D02*
X117336761Y-102426285D01*
X117336761Y-102426285D02*
X117289142Y-102473904D01*
X117289142Y-102473904D02*
X117193904Y-102521523D01*
X117193904Y-102521523D02*
X116908190Y-102521523D01*
X116908190Y-102521523D02*
X116812952Y-102473904D01*
X116812952Y-102473904D02*
X116765333Y-102426285D01*
X116765333Y-102426285D02*
X116717714Y-102331047D01*
X116717714Y-102331047D02*
X116717714Y-102188190D01*
X116717714Y-102188190D02*
X116765333Y-102092952D01*
X116765333Y-102092952D02*
X116812952Y-102045333D01*
X116812952Y-102045333D02*
X116908190Y-101997714D01*
X116908190Y-101997714D02*
X117193904Y-101997714D01*
X117193904Y-101997714D02*
X117289142Y-102045333D01*
X117289142Y-102045333D02*
X117336761Y-102092952D01*
X117336761Y-102092952D02*
X117384380Y-102188190D01*
X117384380Y-102188190D02*
X117384380Y-102331047D01*
X117384380Y-101569142D02*
X116717714Y-101569142D01*
X116812952Y-101569142D02*
X116765333Y-101521523D01*
X116765333Y-101521523D02*
X116717714Y-101426285D01*
X116717714Y-101426285D02*
X116717714Y-101283428D01*
X116717714Y-101283428D02*
X116765333Y-101188190D01*
X116765333Y-101188190D02*
X116860571Y-101140571D01*
X116860571Y-101140571D02*
X117384380Y-101140571D01*
X116860571Y-101140571D02*
X116765333Y-101092952D01*
X116765333Y-101092952D02*
X116717714Y-100997714D01*
X116717714Y-100997714D02*
X116717714Y-100854857D01*
X116717714Y-100854857D02*
X116765333Y-100759618D01*
X116765333Y-100759618D02*
X116860571Y-100711999D01*
X116860571Y-100711999D02*
X117384380Y-100711999D01*
X116336761Y-99521524D02*
X117622476Y-100378666D01*
X116717714Y-99188190D02*
X117574857Y-99188190D01*
X117574857Y-99188190D02*
X117670095Y-99235809D01*
X117670095Y-99235809D02*
X117717714Y-99331047D01*
X117717714Y-99331047D02*
X117717714Y-99378666D01*
X116384380Y-99188190D02*
X116432000Y-99235809D01*
X116432000Y-99235809D02*
X116479619Y-99188190D01*
X116479619Y-99188190D02*
X116432000Y-99140571D01*
X116432000Y-99140571D02*
X116384380Y-99188190D01*
X116384380Y-99188190D02*
X116479619Y-99188190D01*
X117384380Y-98712000D02*
X116717714Y-98712000D01*
X116384380Y-98712000D02*
X116432000Y-98759619D01*
X116432000Y-98759619D02*
X116479619Y-98712000D01*
X116479619Y-98712000D02*
X116432000Y-98664381D01*
X116432000Y-98664381D02*
X116384380Y-98712000D01*
X116384380Y-98712000D02*
X116479619Y-98712000D01*
X117384380Y-98235810D02*
X116717714Y-98235810D01*
X116812952Y-98235810D02*
X116765333Y-98188191D01*
X116765333Y-98188191D02*
X116717714Y-98092953D01*
X116717714Y-98092953D02*
X116717714Y-97950096D01*
X116717714Y-97950096D02*
X116765333Y-97854858D01*
X116765333Y-97854858D02*
X116860571Y-97807239D01*
X116860571Y-97807239D02*
X117384380Y-97807239D01*
X116860571Y-97807239D02*
X116765333Y-97759620D01*
X116765333Y-97759620D02*
X116717714Y-97664382D01*
X116717714Y-97664382D02*
X116717714Y-97521525D01*
X116717714Y-97521525D02*
X116765333Y-97426286D01*
X116765333Y-97426286D02*
X116860571Y-97378667D01*
X116860571Y-97378667D02*
X117384380Y-97378667D01*
X117336761Y-96473906D02*
X117384380Y-96569144D01*
X117384380Y-96569144D02*
X117384380Y-96759620D01*
X117384380Y-96759620D02*
X117336761Y-96854858D01*
X117336761Y-96854858D02*
X117289142Y-96902477D01*
X117289142Y-96902477D02*
X117193904Y-96950096D01*
X117193904Y-96950096D02*
X116908190Y-96950096D01*
X116908190Y-96950096D02*
X116812952Y-96902477D01*
X116812952Y-96902477D02*
X116765333Y-96854858D01*
X116765333Y-96854858D02*
X116717714Y-96759620D01*
X116717714Y-96759620D02*
X116717714Y-96569144D01*
X116717714Y-96569144D02*
X116765333Y-96473906D01*
X117384380Y-95902477D02*
X117336761Y-95997715D01*
X117336761Y-95997715D02*
X117289142Y-96045334D01*
X117289142Y-96045334D02*
X117193904Y-96092953D01*
X117193904Y-96092953D02*
X116908190Y-96092953D01*
X116908190Y-96092953D02*
X116812952Y-96045334D01*
X116812952Y-96045334D02*
X116765333Y-95997715D01*
X116765333Y-95997715D02*
X116717714Y-95902477D01*
X116717714Y-95902477D02*
X116717714Y-95759620D01*
X116717714Y-95759620D02*
X116765333Y-95664382D01*
X116765333Y-95664382D02*
X116812952Y-95616763D01*
X116812952Y-95616763D02*
X116908190Y-95569144D01*
X116908190Y-95569144D02*
X117193904Y-95569144D01*
X117193904Y-95569144D02*
X117289142Y-95616763D01*
X117289142Y-95616763D02*
X117336761Y-95664382D01*
X117336761Y-95664382D02*
X117384380Y-95759620D01*
X117384380Y-95759620D02*
X117384380Y-95902477D01*
X116717714Y-95140572D02*
X117384380Y-95140572D01*
X116812952Y-95140572D02*
X116765333Y-95092953D01*
X116765333Y-95092953D02*
X116717714Y-94997715D01*
X116717714Y-94997715D02*
X116717714Y-94854858D01*
X116717714Y-94854858D02*
X116765333Y-94759620D01*
X116765333Y-94759620D02*
X116860571Y-94712001D01*
X116860571Y-94712001D02*
X117384380Y-94712001D01*
X116717714Y-94235810D02*
X117384380Y-94235810D01*
X116812952Y-94235810D02*
X116765333Y-94188191D01*
X116765333Y-94188191D02*
X116717714Y-94092953D01*
X116717714Y-94092953D02*
X116717714Y-93950096D01*
X116717714Y-93950096D02*
X116765333Y-93854858D01*
X116765333Y-93854858D02*
X116860571Y-93807239D01*
X116860571Y-93807239D02*
X117384380Y-93807239D01*
X117336761Y-92950096D02*
X117384380Y-93045334D01*
X117384380Y-93045334D02*
X117384380Y-93235810D01*
X117384380Y-93235810D02*
X117336761Y-93331048D01*
X117336761Y-93331048D02*
X117241523Y-93378667D01*
X117241523Y-93378667D02*
X116860571Y-93378667D01*
X116860571Y-93378667D02*
X116765333Y-93331048D01*
X116765333Y-93331048D02*
X116717714Y-93235810D01*
X116717714Y-93235810D02*
X116717714Y-93045334D01*
X116717714Y-93045334D02*
X116765333Y-92950096D01*
X116765333Y-92950096D02*
X116860571Y-92902477D01*
X116860571Y-92902477D02*
X116955809Y-92902477D01*
X116955809Y-92902477D02*
X117051047Y-93378667D01*
X117384380Y-92473905D02*
X116717714Y-92473905D01*
X116908190Y-92473905D02*
X116812952Y-92426286D01*
X116812952Y-92426286D02*
X116765333Y-92378667D01*
X116765333Y-92378667D02*
X116717714Y-92283429D01*
X116717714Y-92283429D02*
X116717714Y-92188191D01*
X116336761Y-91140572D02*
X117622476Y-91997714D01*
X116717714Y-90902476D02*
X116717714Y-90378667D01*
X116717714Y-90378667D02*
X117384380Y-90902476D01*
X117384380Y-90902476D02*
X117384380Y-90378667D01*
X116812952Y-89854857D02*
X116765333Y-89950095D01*
X116765333Y-89950095D02*
X116717714Y-89997714D01*
X116717714Y-89997714D02*
X116622476Y-90045333D01*
X116622476Y-90045333D02*
X116574857Y-90045333D01*
X116574857Y-90045333D02*
X116479619Y-89997714D01*
X116479619Y-89997714D02*
X116432000Y-89950095D01*
X116432000Y-89950095D02*
X116384380Y-89854857D01*
X116384380Y-89854857D02*
X116384380Y-89664381D01*
X116384380Y-89664381D02*
X116432000Y-89569143D01*
X116432000Y-89569143D02*
X116479619Y-89521524D01*
X116479619Y-89521524D02*
X116574857Y-89473905D01*
X116574857Y-89473905D02*
X116622476Y-89473905D01*
X116622476Y-89473905D02*
X116717714Y-89521524D01*
X116717714Y-89521524D02*
X116765333Y-89569143D01*
X116765333Y-89569143D02*
X116812952Y-89664381D01*
X116812952Y-89664381D02*
X116812952Y-89854857D01*
X116812952Y-89854857D02*
X116860571Y-89950095D01*
X116860571Y-89950095D02*
X116908190Y-89997714D01*
X116908190Y-89997714D02*
X117003428Y-90045333D01*
X117003428Y-90045333D02*
X117193904Y-90045333D01*
X117193904Y-90045333D02*
X117289142Y-89997714D01*
X117289142Y-89997714D02*
X117336761Y-89950095D01*
X117336761Y-89950095D02*
X117384380Y-89854857D01*
X117384380Y-89854857D02*
X117384380Y-89664381D01*
X117384380Y-89664381D02*
X117336761Y-89569143D01*
X117336761Y-89569143D02*
X117289142Y-89521524D01*
X117289142Y-89521524D02*
X117193904Y-89473905D01*
X117193904Y-89473905D02*
X117003428Y-89473905D01*
X117003428Y-89473905D02*
X116908190Y-89521524D01*
X116908190Y-89521524D02*
X116860571Y-89569143D01*
X116860571Y-89569143D02*
X116812952Y-89664381D01*
X116812952Y-88902476D02*
X116765333Y-88997714D01*
X116765333Y-88997714D02*
X116717714Y-89045333D01*
X116717714Y-89045333D02*
X116622476Y-89092952D01*
X116622476Y-89092952D02*
X116574857Y-89092952D01*
X116574857Y-89092952D02*
X116479619Y-89045333D01*
X116479619Y-89045333D02*
X116432000Y-88997714D01*
X116432000Y-88997714D02*
X116384380Y-88902476D01*
X116384380Y-88902476D02*
X116384380Y-88712000D01*
X116384380Y-88712000D02*
X116432000Y-88616762D01*
X116432000Y-88616762D02*
X116479619Y-88569143D01*
X116479619Y-88569143D02*
X116574857Y-88521524D01*
X116574857Y-88521524D02*
X116622476Y-88521524D01*
X116622476Y-88521524D02*
X116717714Y-88569143D01*
X116717714Y-88569143D02*
X116765333Y-88616762D01*
X116765333Y-88616762D02*
X116812952Y-88712000D01*
X116812952Y-88712000D02*
X116812952Y-88902476D01*
X116812952Y-88902476D02*
X116860571Y-88997714D01*
X116860571Y-88997714D02*
X116908190Y-89045333D01*
X116908190Y-89045333D02*
X117003428Y-89092952D01*
X117003428Y-89092952D02*
X117193904Y-89092952D01*
X117193904Y-89092952D02*
X117289142Y-89045333D01*
X117289142Y-89045333D02*
X117336761Y-88997714D01*
X117336761Y-88997714D02*
X117384380Y-88902476D01*
X117384380Y-88902476D02*
X117384380Y-88712000D01*
X117384380Y-88712000D02*
X117336761Y-88616762D01*
X117336761Y-88616762D02*
X117289142Y-88569143D01*
X117289142Y-88569143D02*
X117193904Y-88521524D01*
X117193904Y-88521524D02*
X117003428Y-88521524D01*
X117003428Y-88521524D02*
X116908190Y-88569143D01*
X116908190Y-88569143D02*
X116860571Y-88616762D01*
X116860571Y-88616762D02*
X116812952Y-88712000D01*
X117003428Y-88092952D02*
X117003428Y-87331048D01*
X116717714Y-86997714D02*
X116717714Y-86616762D01*
X117384380Y-86854857D02*
X116527238Y-86854857D01*
X116527238Y-86854857D02*
X116432000Y-86807238D01*
X116432000Y-86807238D02*
X116384380Y-86712000D01*
X116384380Y-86712000D02*
X116384380Y-86616762D01*
X117384380Y-86140571D02*
X117336761Y-86235809D01*
X117336761Y-86235809D02*
X117241523Y-86283428D01*
X117241523Y-86283428D02*
X116384380Y-86283428D01*
X117384380Y-85331047D02*
X116860571Y-85331047D01*
X116860571Y-85331047D02*
X116765333Y-85378666D01*
X116765333Y-85378666D02*
X116717714Y-85473904D01*
X116717714Y-85473904D02*
X116717714Y-85664380D01*
X116717714Y-85664380D02*
X116765333Y-85759618D01*
X117336761Y-85331047D02*
X117384380Y-85426285D01*
X117384380Y-85426285D02*
X117384380Y-85664380D01*
X117384380Y-85664380D02*
X117336761Y-85759618D01*
X117336761Y-85759618D02*
X117241523Y-85807237D01*
X117241523Y-85807237D02*
X117146285Y-85807237D01*
X117146285Y-85807237D02*
X117051047Y-85759618D01*
X117051047Y-85759618D02*
X117003428Y-85664380D01*
X117003428Y-85664380D02*
X117003428Y-85426285D01*
X117003428Y-85426285D02*
X116955809Y-85331047D01*
X117336761Y-84902475D02*
X117384380Y-84807237D01*
X117384380Y-84807237D02*
X117384380Y-84616761D01*
X117384380Y-84616761D02*
X117336761Y-84521523D01*
X117336761Y-84521523D02*
X117241523Y-84473904D01*
X117241523Y-84473904D02*
X117193904Y-84473904D01*
X117193904Y-84473904D02*
X117098666Y-84521523D01*
X117098666Y-84521523D02*
X117051047Y-84616761D01*
X117051047Y-84616761D02*
X117051047Y-84759618D01*
X117051047Y-84759618D02*
X117003428Y-84854856D01*
X117003428Y-84854856D02*
X116908190Y-84902475D01*
X116908190Y-84902475D02*
X116860571Y-84902475D01*
X116860571Y-84902475D02*
X116765333Y-84854856D01*
X116765333Y-84854856D02*
X116717714Y-84759618D01*
X116717714Y-84759618D02*
X116717714Y-84616761D01*
X116717714Y-84616761D02*
X116765333Y-84521523D01*
X117384380Y-84045332D02*
X116384380Y-84045332D01*
X117384380Y-83616761D02*
X116860571Y-83616761D01*
X116860571Y-83616761D02*
X116765333Y-83664380D01*
X116765333Y-83664380D02*
X116717714Y-83759618D01*
X116717714Y-83759618D02*
X116717714Y-83902475D01*
X116717714Y-83902475D02*
X116765333Y-83997713D01*
X116765333Y-83997713D02*
X116812952Y-84045332D01*
D12*
%TO.C,512K*%
X132971380Y-109672285D02*
X132971380Y-110148475D01*
X132971380Y-110148475D02*
X133447571Y-110196094D01*
X133447571Y-110196094D02*
X133399952Y-110148475D01*
X133399952Y-110148475D02*
X133352333Y-110053237D01*
X133352333Y-110053237D02*
X133352333Y-109815142D01*
X133352333Y-109815142D02*
X133399952Y-109719904D01*
X133399952Y-109719904D02*
X133447571Y-109672285D01*
X133447571Y-109672285D02*
X133542809Y-109624666D01*
X133542809Y-109624666D02*
X133780904Y-109624666D01*
X133780904Y-109624666D02*
X133876142Y-109672285D01*
X133876142Y-109672285D02*
X133923761Y-109719904D01*
X133923761Y-109719904D02*
X133971380Y-109815142D01*
X133971380Y-109815142D02*
X133971380Y-110053237D01*
X133971380Y-110053237D02*
X133923761Y-110148475D01*
X133923761Y-110148475D02*
X133876142Y-110196094D01*
X133971380Y-108672285D02*
X133971380Y-109243713D01*
X133971380Y-108957999D02*
X132971380Y-108957999D01*
X132971380Y-108957999D02*
X133114238Y-109053237D01*
X133114238Y-109053237D02*
X133209476Y-109148475D01*
X133209476Y-109148475D02*
X133257095Y-109243713D01*
X133066619Y-108291332D02*
X133019000Y-108243713D01*
X133019000Y-108243713D02*
X132971380Y-108148475D01*
X132971380Y-108148475D02*
X132971380Y-107910380D01*
X132971380Y-107910380D02*
X133019000Y-107815142D01*
X133019000Y-107815142D02*
X133066619Y-107767523D01*
X133066619Y-107767523D02*
X133161857Y-107719904D01*
X133161857Y-107719904D02*
X133257095Y-107719904D01*
X133257095Y-107719904D02*
X133399952Y-107767523D01*
X133399952Y-107767523D02*
X133971380Y-108338951D01*
X133971380Y-108338951D02*
X133971380Y-107719904D01*
X133971380Y-107291332D02*
X132971380Y-107291332D01*
X133971380Y-106719904D02*
X133399952Y-107148475D01*
X132971380Y-106719904D02*
X133542809Y-107291332D01*
%TO.C,U3*%
X164618380Y-86305904D02*
X165427904Y-86305904D01*
X165427904Y-86305904D02*
X165523142Y-86258285D01*
X165523142Y-86258285D02*
X165570761Y-86210666D01*
X165570761Y-86210666D02*
X165618380Y-86115428D01*
X165618380Y-86115428D02*
X165618380Y-85924952D01*
X165618380Y-85924952D02*
X165570761Y-85829714D01*
X165570761Y-85829714D02*
X165523142Y-85782095D01*
X165523142Y-85782095D02*
X165427904Y-85734476D01*
X165427904Y-85734476D02*
X164618380Y-85734476D01*
X164618380Y-85353523D02*
X164618380Y-84734476D01*
X164618380Y-84734476D02*
X164999333Y-85067809D01*
X164999333Y-85067809D02*
X164999333Y-84924952D01*
X164999333Y-84924952D02*
X165046952Y-84829714D01*
X165046952Y-84829714D02*
X165094571Y-84782095D01*
X165094571Y-84782095D02*
X165189809Y-84734476D01*
X165189809Y-84734476D02*
X165427904Y-84734476D01*
X165427904Y-84734476D02*
X165523142Y-84782095D01*
X165523142Y-84782095D02*
X165570761Y-84829714D01*
X165570761Y-84829714D02*
X165618380Y-84924952D01*
X165618380Y-84924952D02*
X165618380Y-85210666D01*
X165618380Y-85210666D02*
X165570761Y-85305904D01*
X165570761Y-85305904D02*
X165523142Y-85353523D01*
%TO.C,C2*%
X138376142Y-101336666D02*
X138423761Y-101384285D01*
X138423761Y-101384285D02*
X138471380Y-101527142D01*
X138471380Y-101527142D02*
X138471380Y-101622380D01*
X138471380Y-101622380D02*
X138423761Y-101765237D01*
X138423761Y-101765237D02*
X138328523Y-101860475D01*
X138328523Y-101860475D02*
X138233285Y-101908094D01*
X138233285Y-101908094D02*
X138042809Y-101955713D01*
X138042809Y-101955713D02*
X137899952Y-101955713D01*
X137899952Y-101955713D02*
X137709476Y-101908094D01*
X137709476Y-101908094D02*
X137614238Y-101860475D01*
X137614238Y-101860475D02*
X137519000Y-101765237D01*
X137519000Y-101765237D02*
X137471380Y-101622380D01*
X137471380Y-101622380D02*
X137471380Y-101527142D01*
X137471380Y-101527142D02*
X137519000Y-101384285D01*
X137519000Y-101384285D02*
X137566619Y-101336666D01*
X137566619Y-100955713D02*
X137519000Y-100908094D01*
X137519000Y-100908094D02*
X137471380Y-100812856D01*
X137471380Y-100812856D02*
X137471380Y-100574761D01*
X137471380Y-100574761D02*
X137519000Y-100479523D01*
X137519000Y-100479523D02*
X137566619Y-100431904D01*
X137566619Y-100431904D02*
X137661857Y-100384285D01*
X137661857Y-100384285D02*
X137757095Y-100384285D01*
X137757095Y-100384285D02*
X137899952Y-100431904D01*
X137899952Y-100431904D02*
X138471380Y-101003332D01*
X138471380Y-101003332D02*
X138471380Y-100384285D01*
%TO.C,C3*%
X138630142Y-84826666D02*
X138677761Y-84874285D01*
X138677761Y-84874285D02*
X138725380Y-85017142D01*
X138725380Y-85017142D02*
X138725380Y-85112380D01*
X138725380Y-85112380D02*
X138677761Y-85255237D01*
X138677761Y-85255237D02*
X138582523Y-85350475D01*
X138582523Y-85350475D02*
X138487285Y-85398094D01*
X138487285Y-85398094D02*
X138296809Y-85445713D01*
X138296809Y-85445713D02*
X138153952Y-85445713D01*
X138153952Y-85445713D02*
X137963476Y-85398094D01*
X137963476Y-85398094D02*
X137868238Y-85350475D01*
X137868238Y-85350475D02*
X137773000Y-85255237D01*
X137773000Y-85255237D02*
X137725380Y-85112380D01*
X137725380Y-85112380D02*
X137725380Y-85017142D01*
X137725380Y-85017142D02*
X137773000Y-84874285D01*
X137773000Y-84874285D02*
X137820619Y-84826666D01*
X137725380Y-84493332D02*
X137725380Y-83874285D01*
X137725380Y-83874285D02*
X138106333Y-84207618D01*
X138106333Y-84207618D02*
X138106333Y-84064761D01*
X138106333Y-84064761D02*
X138153952Y-83969523D01*
X138153952Y-83969523D02*
X138201571Y-83921904D01*
X138201571Y-83921904D02*
X138296809Y-83874285D01*
X138296809Y-83874285D02*
X138534904Y-83874285D01*
X138534904Y-83874285D02*
X138630142Y-83921904D01*
X138630142Y-83921904D02*
X138677761Y-83969523D01*
X138677761Y-83969523D02*
X138725380Y-84064761D01*
X138725380Y-84064761D02*
X138725380Y-84350475D01*
X138725380Y-84350475D02*
X138677761Y-84445713D01*
X138677761Y-84445713D02*
X138630142Y-84493332D01*
%TO.C,U2*%
X164618380Y-102561904D02*
X165427904Y-102561904D01*
X165427904Y-102561904D02*
X165523142Y-102514285D01*
X165523142Y-102514285D02*
X165570761Y-102466666D01*
X165570761Y-102466666D02*
X165618380Y-102371428D01*
X165618380Y-102371428D02*
X165618380Y-102180952D01*
X165618380Y-102180952D02*
X165570761Y-102085714D01*
X165570761Y-102085714D02*
X165523142Y-102038095D01*
X165523142Y-102038095D02*
X165427904Y-101990476D01*
X165427904Y-101990476D02*
X164618380Y-101990476D01*
X164713619Y-101561904D02*
X164666000Y-101514285D01*
X164666000Y-101514285D02*
X164618380Y-101419047D01*
X164618380Y-101419047D02*
X164618380Y-101180952D01*
X164618380Y-101180952D02*
X164666000Y-101085714D01*
X164666000Y-101085714D02*
X164713619Y-101038095D01*
X164713619Y-101038095D02*
X164808857Y-100990476D01*
X164808857Y-100990476D02*
X164904095Y-100990476D01*
X164904095Y-100990476D02*
X165046952Y-101038095D01*
X165046952Y-101038095D02*
X165618380Y-101609523D01*
X165618380Y-101609523D02*
X165618380Y-100990476D01*
%TO.C,U4*%
X121033380Y-108711904D02*
X121842904Y-108711904D01*
X121842904Y-108711904D02*
X121938142Y-108664285D01*
X121938142Y-108664285D02*
X121985761Y-108616666D01*
X121985761Y-108616666D02*
X122033380Y-108521428D01*
X122033380Y-108521428D02*
X122033380Y-108330952D01*
X122033380Y-108330952D02*
X121985761Y-108235714D01*
X121985761Y-108235714D02*
X121938142Y-108188095D01*
X121938142Y-108188095D02*
X121842904Y-108140476D01*
X121842904Y-108140476D02*
X121033380Y-108140476D01*
X121366714Y-107235714D02*
X122033380Y-107235714D01*
X120985761Y-107473809D02*
X121700047Y-107711904D01*
X121700047Y-107711904D02*
X121700047Y-107092857D01*
%TO.C,U1*%
X131193380Y-88391904D02*
X132002904Y-88391904D01*
X132002904Y-88391904D02*
X132098142Y-88344285D01*
X132098142Y-88344285D02*
X132145761Y-88296666D01*
X132145761Y-88296666D02*
X132193380Y-88201428D01*
X132193380Y-88201428D02*
X132193380Y-88010952D01*
X132193380Y-88010952D02*
X132145761Y-87915714D01*
X132145761Y-87915714D02*
X132098142Y-87868095D01*
X132098142Y-87868095D02*
X132002904Y-87820476D01*
X132002904Y-87820476D02*
X131193380Y-87820476D01*
X132193380Y-86820476D02*
X132193380Y-87391904D01*
X132193380Y-87106190D02*
X131193380Y-87106190D01*
X131193380Y-87106190D02*
X131336238Y-87201428D01*
X131336238Y-87201428D02*
X131431476Y-87296666D01*
X131431476Y-87296666D02*
X131479095Y-87391904D01*
X121843666Y-94701047D02*
X121843666Y-94224857D01*
X122129380Y-94796285D02*
X121129380Y-94462952D01*
X121129380Y-94462952D02*
X122129380Y-94129619D01*
X122129380Y-93796285D02*
X121129380Y-93796285D01*
X121129380Y-93796285D02*
X121843666Y-93462952D01*
X121843666Y-93462952D02*
X121129380Y-93129619D01*
X121129380Y-93129619D02*
X122129380Y-93129619D01*
X121224619Y-92701047D02*
X121177000Y-92653428D01*
X121177000Y-92653428D02*
X121129380Y-92558190D01*
X121129380Y-92558190D02*
X121129380Y-92320095D01*
X121129380Y-92320095D02*
X121177000Y-92224857D01*
X121177000Y-92224857D02*
X121224619Y-92177238D01*
X121224619Y-92177238D02*
X121319857Y-92129619D01*
X121319857Y-92129619D02*
X121415095Y-92129619D01*
X121415095Y-92129619D02*
X121557952Y-92177238D01*
X121557952Y-92177238D02*
X122129380Y-92748666D01*
X122129380Y-92748666D02*
X122129380Y-92129619D01*
X122129380Y-91653428D02*
X122129380Y-91462952D01*
X122129380Y-91462952D02*
X122081761Y-91367714D01*
X122081761Y-91367714D02*
X122034142Y-91320095D01*
X122034142Y-91320095D02*
X121891285Y-91224857D01*
X121891285Y-91224857D02*
X121700809Y-91177238D01*
X121700809Y-91177238D02*
X121319857Y-91177238D01*
X121319857Y-91177238D02*
X121224619Y-91224857D01*
X121224619Y-91224857D02*
X121177000Y-91272476D01*
X121177000Y-91272476D02*
X121129380Y-91367714D01*
X121129380Y-91367714D02*
X121129380Y-91558190D01*
X121129380Y-91558190D02*
X121177000Y-91653428D01*
X121177000Y-91653428D02*
X121224619Y-91701047D01*
X121224619Y-91701047D02*
X121319857Y-91748666D01*
X121319857Y-91748666D02*
X121557952Y-91748666D01*
X121557952Y-91748666D02*
X121653190Y-91701047D01*
X121653190Y-91701047D02*
X121700809Y-91653428D01*
X121700809Y-91653428D02*
X121748428Y-91558190D01*
X121748428Y-91558190D02*
X121748428Y-91367714D01*
X121748428Y-91367714D02*
X121700809Y-91272476D01*
X121700809Y-91272476D02*
X121653190Y-91224857D01*
X121653190Y-91224857D02*
X121557952Y-91177238D01*
X121605571Y-90415333D02*
X121605571Y-90748666D01*
X122129380Y-90748666D02*
X121129380Y-90748666D01*
X121129380Y-90748666D02*
X121129380Y-90272476D01*
X121129380Y-89701047D02*
X121129380Y-89605809D01*
X121129380Y-89605809D02*
X121177000Y-89510571D01*
X121177000Y-89510571D02*
X121224619Y-89462952D01*
X121224619Y-89462952D02*
X121319857Y-89415333D01*
X121319857Y-89415333D02*
X121510333Y-89367714D01*
X121510333Y-89367714D02*
X121748428Y-89367714D01*
X121748428Y-89367714D02*
X121938904Y-89415333D01*
X121938904Y-89415333D02*
X122034142Y-89462952D01*
X122034142Y-89462952D02*
X122081761Y-89510571D01*
X122081761Y-89510571D02*
X122129380Y-89605809D01*
X122129380Y-89605809D02*
X122129380Y-89701047D01*
X122129380Y-89701047D02*
X122081761Y-89796285D01*
X122081761Y-89796285D02*
X122034142Y-89843904D01*
X122034142Y-89843904D02*
X121938904Y-89891523D01*
X121938904Y-89891523D02*
X121748428Y-89939142D01*
X121748428Y-89939142D02*
X121510333Y-89939142D01*
X121510333Y-89939142D02*
X121319857Y-89891523D01*
X121319857Y-89891523D02*
X121224619Y-89843904D01*
X121224619Y-89843904D02*
X121177000Y-89796285D01*
X121177000Y-89796285D02*
X121129380Y-89701047D01*
X121557952Y-88796285D02*
X121510333Y-88891523D01*
X121510333Y-88891523D02*
X121462714Y-88939142D01*
X121462714Y-88939142D02*
X121367476Y-88986761D01*
X121367476Y-88986761D02*
X121319857Y-88986761D01*
X121319857Y-88986761D02*
X121224619Y-88939142D01*
X121224619Y-88939142D02*
X121177000Y-88891523D01*
X121177000Y-88891523D02*
X121129380Y-88796285D01*
X121129380Y-88796285D02*
X121129380Y-88605809D01*
X121129380Y-88605809D02*
X121177000Y-88510571D01*
X121177000Y-88510571D02*
X121224619Y-88462952D01*
X121224619Y-88462952D02*
X121319857Y-88415333D01*
X121319857Y-88415333D02*
X121367476Y-88415333D01*
X121367476Y-88415333D02*
X121462714Y-88462952D01*
X121462714Y-88462952D02*
X121510333Y-88510571D01*
X121510333Y-88510571D02*
X121557952Y-88605809D01*
X121557952Y-88605809D02*
X121557952Y-88796285D01*
X121557952Y-88796285D02*
X121605571Y-88891523D01*
X121605571Y-88891523D02*
X121653190Y-88939142D01*
X121653190Y-88939142D02*
X121748428Y-88986761D01*
X121748428Y-88986761D02*
X121938904Y-88986761D01*
X121938904Y-88986761D02*
X122034142Y-88939142D01*
X122034142Y-88939142D02*
X122081761Y-88891523D01*
X122081761Y-88891523D02*
X122129380Y-88796285D01*
X122129380Y-88796285D02*
X122129380Y-88605809D01*
X122129380Y-88605809D02*
X122081761Y-88510571D01*
X122081761Y-88510571D02*
X122034142Y-88462952D01*
X122034142Y-88462952D02*
X121938904Y-88415333D01*
X121938904Y-88415333D02*
X121748428Y-88415333D01*
X121748428Y-88415333D02*
X121653190Y-88462952D01*
X121653190Y-88462952D02*
X121605571Y-88510571D01*
X121605571Y-88510571D02*
X121557952Y-88605809D01*
X121129380Y-87796285D02*
X121129380Y-87701047D01*
X121129380Y-87701047D02*
X121177000Y-87605809D01*
X121177000Y-87605809D02*
X121224619Y-87558190D01*
X121224619Y-87558190D02*
X121319857Y-87510571D01*
X121319857Y-87510571D02*
X121510333Y-87462952D01*
X121510333Y-87462952D02*
X121748428Y-87462952D01*
X121748428Y-87462952D02*
X121938904Y-87510571D01*
X121938904Y-87510571D02*
X122034142Y-87558190D01*
X122034142Y-87558190D02*
X122081761Y-87605809D01*
X122081761Y-87605809D02*
X122129380Y-87701047D01*
X122129380Y-87701047D02*
X122129380Y-87796285D01*
X122129380Y-87796285D02*
X122081761Y-87891523D01*
X122081761Y-87891523D02*
X122034142Y-87939142D01*
X122034142Y-87939142D02*
X121938904Y-87986761D01*
X121938904Y-87986761D02*
X121748428Y-88034380D01*
X121748428Y-88034380D02*
X121510333Y-88034380D01*
X121510333Y-88034380D02*
X121319857Y-87986761D01*
X121319857Y-87986761D02*
X121224619Y-87939142D01*
X121224619Y-87939142D02*
X121177000Y-87891523D01*
X121177000Y-87891523D02*
X121129380Y-87796285D01*
X121748428Y-87034380D02*
X121748428Y-86272476D01*
X122129380Y-85272476D02*
X122129380Y-85843904D01*
X122129380Y-85558190D02*
X121129380Y-85558190D01*
X121129380Y-85558190D02*
X121272238Y-85653428D01*
X121272238Y-85653428D02*
X121367476Y-85748666D01*
X121367476Y-85748666D02*
X121415095Y-85843904D01*
X121224619Y-84891523D02*
X121177000Y-84843904D01*
X121177000Y-84843904D02*
X121129380Y-84748666D01*
X121129380Y-84748666D02*
X121129380Y-84510571D01*
X121129380Y-84510571D02*
X121177000Y-84415333D01*
X121177000Y-84415333D02*
X121224619Y-84367714D01*
X121224619Y-84367714D02*
X121319857Y-84320095D01*
X121319857Y-84320095D02*
X121415095Y-84320095D01*
X121415095Y-84320095D02*
X121557952Y-84367714D01*
X121557952Y-84367714D02*
X122129380Y-84939142D01*
X122129380Y-84939142D02*
X122129380Y-84320095D01*
X121129380Y-83701047D02*
X121129380Y-83605809D01*
X121129380Y-83605809D02*
X121177000Y-83510571D01*
X121177000Y-83510571D02*
X121224619Y-83462952D01*
X121224619Y-83462952D02*
X121319857Y-83415333D01*
X121319857Y-83415333D02*
X121510333Y-83367714D01*
X121510333Y-83367714D02*
X121748428Y-83367714D01*
X121748428Y-83367714D02*
X121938904Y-83415333D01*
X121938904Y-83415333D02*
X122034142Y-83462952D01*
X122034142Y-83462952D02*
X122081761Y-83510571D01*
X122081761Y-83510571D02*
X122129380Y-83605809D01*
X122129380Y-83605809D02*
X122129380Y-83701047D01*
X122129380Y-83701047D02*
X122081761Y-83796285D01*
X122081761Y-83796285D02*
X122034142Y-83843904D01*
X122034142Y-83843904D02*
X121938904Y-83891523D01*
X121938904Y-83891523D02*
X121748428Y-83939142D01*
X121748428Y-83939142D02*
X121510333Y-83939142D01*
X121510333Y-83939142D02*
X121319857Y-83891523D01*
X121319857Y-83891523D02*
X121224619Y-83843904D01*
X121224619Y-83843904D02*
X121177000Y-83796285D01*
X121177000Y-83796285D02*
X121129380Y-83701047D01*
X121605571Y-82939142D02*
X121605571Y-82605809D01*
X122129380Y-82462952D02*
X122129380Y-82939142D01*
X122129380Y-82939142D02*
X121129380Y-82939142D01*
X121129380Y-82939142D02*
X121129380Y-82462952D01*
X122034142Y-81462952D02*
X122081761Y-81510571D01*
X122081761Y-81510571D02*
X122129380Y-81653428D01*
X122129380Y-81653428D02*
X122129380Y-81748666D01*
X122129380Y-81748666D02*
X122081761Y-81891523D01*
X122081761Y-81891523D02*
X121986523Y-81986761D01*
X121986523Y-81986761D02*
X121891285Y-82034380D01*
X121891285Y-82034380D02*
X121700809Y-82081999D01*
X121700809Y-82081999D02*
X121557952Y-82081999D01*
X121557952Y-82081999D02*
X121367476Y-82034380D01*
X121367476Y-82034380D02*
X121272238Y-81986761D01*
X121272238Y-81986761D02*
X121177000Y-81891523D01*
X121177000Y-81891523D02*
X121129380Y-81748666D01*
X121129380Y-81748666D02*
X121129380Y-81653428D01*
X121129380Y-81653428D02*
X121177000Y-81510571D01*
X121177000Y-81510571D02*
X121224619Y-81462952D01*
%TO.C,D1*%
X143406905Y-112381380D02*
X143406905Y-111381380D01*
X143406905Y-111381380D02*
X143645000Y-111381380D01*
X143645000Y-111381380D02*
X143787857Y-111429000D01*
X143787857Y-111429000D02*
X143883095Y-111524238D01*
X143883095Y-111524238D02*
X143930714Y-111619476D01*
X143930714Y-111619476D02*
X143978333Y-111809952D01*
X143978333Y-111809952D02*
X143978333Y-111952809D01*
X143978333Y-111952809D02*
X143930714Y-112143285D01*
X143930714Y-112143285D02*
X143883095Y-112238523D01*
X143883095Y-112238523D02*
X143787857Y-112333761D01*
X143787857Y-112333761D02*
X143645000Y-112381380D01*
X143645000Y-112381380D02*
X143406905Y-112381380D01*
X144930714Y-112381380D02*
X144359286Y-112381380D01*
X144645000Y-112381380D02*
X144645000Y-111381380D01*
X144645000Y-111381380D02*
X144549762Y-111524238D01*
X144549762Y-111524238D02*
X144454524Y-111619476D01*
X144454524Y-111619476D02*
X144359286Y-111667095D01*
X143883142Y-113778380D02*
X143406952Y-113778380D01*
X143406952Y-113778380D02*
X143406952Y-112778380D01*
X144216476Y-113254571D02*
X144549809Y-113254571D01*
X144692666Y-113778380D02*
X144216476Y-113778380D01*
X144216476Y-113778380D02*
X144216476Y-112778380D01*
X144216476Y-112778380D02*
X144692666Y-112778380D01*
X145121238Y-113778380D02*
X145121238Y-112778380D01*
X145121238Y-112778380D02*
X145359333Y-112778380D01*
X145359333Y-112778380D02*
X145502190Y-112826000D01*
X145502190Y-112826000D02*
X145597428Y-112921238D01*
X145597428Y-112921238D02*
X145645047Y-113016476D01*
X145645047Y-113016476D02*
X145692666Y-113206952D01*
X145692666Y-113206952D02*
X145692666Y-113349809D01*
X145692666Y-113349809D02*
X145645047Y-113540285D01*
X145645047Y-113540285D02*
X145597428Y-113635523D01*
X145597428Y-113635523D02*
X145502190Y-113730761D01*
X145502190Y-113730761D02*
X145359333Y-113778380D01*
X145359333Y-113778380D02*
X145121238Y-113778380D01*
%TO.C,R1*%
X139025333Y-107174380D02*
X138692000Y-106698190D01*
X138453905Y-107174380D02*
X138453905Y-106174380D01*
X138453905Y-106174380D02*
X138834857Y-106174380D01*
X138834857Y-106174380D02*
X138930095Y-106222000D01*
X138930095Y-106222000D02*
X138977714Y-106269619D01*
X138977714Y-106269619D02*
X139025333Y-106364857D01*
X139025333Y-106364857D02*
X139025333Y-106507714D01*
X139025333Y-106507714D02*
X138977714Y-106602952D01*
X138977714Y-106602952D02*
X138930095Y-106650571D01*
X138930095Y-106650571D02*
X138834857Y-106698190D01*
X138834857Y-106698190D02*
X138453905Y-106698190D01*
X139977714Y-107174380D02*
X139406286Y-107174380D01*
X139692000Y-107174380D02*
X139692000Y-106174380D01*
X139692000Y-106174380D02*
X139596762Y-106317238D01*
X139596762Y-106317238D02*
X139501524Y-106412476D01*
X139501524Y-106412476D02*
X139406286Y-106460095D01*
%TO.C,C1*%
X132153142Y-91430666D02*
X132200761Y-91478285D01*
X132200761Y-91478285D02*
X132248380Y-91621142D01*
X132248380Y-91621142D02*
X132248380Y-91716380D01*
X132248380Y-91716380D02*
X132200761Y-91859237D01*
X132200761Y-91859237D02*
X132105523Y-91954475D01*
X132105523Y-91954475D02*
X132010285Y-92002094D01*
X132010285Y-92002094D02*
X131819809Y-92049713D01*
X131819809Y-92049713D02*
X131676952Y-92049713D01*
X131676952Y-92049713D02*
X131486476Y-92002094D01*
X131486476Y-92002094D02*
X131391238Y-91954475D01*
X131391238Y-91954475D02*
X131296000Y-91859237D01*
X131296000Y-91859237D02*
X131248380Y-91716380D01*
X131248380Y-91716380D02*
X131248380Y-91621142D01*
X131248380Y-91621142D02*
X131296000Y-91478285D01*
X131296000Y-91478285D02*
X131343619Y-91430666D01*
X132248380Y-90478285D02*
X132248380Y-91049713D01*
X132248380Y-90763999D02*
X131248380Y-90763999D01*
X131248380Y-90763999D02*
X131391238Y-90859237D01*
X131391238Y-90859237D02*
X131486476Y-90954475D01*
X131486476Y-90954475D02*
X131534095Y-91049713D01*
%TO.C,J1*%
X141652666Y-71376380D02*
X141652666Y-72090666D01*
X141652666Y-72090666D02*
X141605047Y-72233523D01*
X141605047Y-72233523D02*
X141509809Y-72328761D01*
X141509809Y-72328761D02*
X141366952Y-72376380D01*
X141366952Y-72376380D02*
X141271714Y-72376380D01*
X142652666Y-72376380D02*
X142081238Y-72376380D01*
X142366952Y-72376380D02*
X142366952Y-71376380D01*
X142366952Y-71376380D02*
X142271714Y-71519238D01*
X142271714Y-71519238D02*
X142176476Y-71614476D01*
X142176476Y-71614476D02*
X142081238Y-71662095D01*
D10*
%TO.C,512K*%
X136255000Y-107073000D02*
X136255000Y-109873000D01*
X136255000Y-109873000D02*
X134255000Y-109873000D01*
X134255000Y-109873000D02*
X134255000Y-107073000D01*
X134255000Y-107073000D02*
X136255000Y-107073000D01*
%TO.C,U3*%
X164408500Y-79781500D02*
X164136000Y-79781500D01*
X164136000Y-79781500D02*
X164136000Y-77969000D01*
X143693500Y-79781500D02*
X143966000Y-79781500D01*
X164408500Y-85544000D02*
X164408500Y-79781500D01*
X164408500Y-85544000D02*
X164408500Y-91306500D01*
X143693500Y-85544000D02*
X143693500Y-79781500D01*
X143693500Y-85544000D02*
X143693500Y-91306500D01*
X164408500Y-91306500D02*
X164136000Y-91306500D01*
X143693500Y-91306500D02*
X143966000Y-91306500D01*
%TO.C,C2*%
X139044000Y-101881252D02*
X139044000Y-100458748D01*
X140864000Y-101881252D02*
X140864000Y-100458748D01*
%TO.C,C3*%
X139298000Y-85371252D02*
X139298000Y-83948748D01*
X141118000Y-85371252D02*
X141118000Y-83948748D01*
%TO.C,U2*%
X164408500Y-96037500D02*
X164136000Y-96037500D01*
X164136000Y-96037500D02*
X164136000Y-94225000D01*
X143693500Y-96037500D02*
X143966000Y-96037500D01*
X164408500Y-101800000D02*
X164408500Y-96037500D01*
X164408500Y-101800000D02*
X164408500Y-107562500D01*
X143693500Y-101800000D02*
X143693500Y-96037500D01*
X143693500Y-101800000D02*
X143693500Y-107562500D01*
X164408500Y-107562500D02*
X164136000Y-107562500D01*
X143693500Y-107562500D02*
X143966000Y-107562500D01*
%TO.C,U4*%
X132695000Y-108112000D02*
X132695000Y-104662000D01*
X132695000Y-108112000D02*
X132695000Y-110062000D01*
X122575000Y-108112000D02*
X122575000Y-106162000D01*
X122575000Y-108112000D02*
X122575000Y-110062000D01*
%TO.C,U1*%
X130910000Y-89443500D02*
X130910000Y-78968500D01*
X130910000Y-89443500D02*
X130910000Y-98643500D01*
X120590000Y-89443500D02*
X120590000Y-80243500D01*
X120590000Y-89443500D02*
X120590000Y-98643500D01*
%TO.C,D1*%
X138428000Y-111514000D02*
X138428000Y-113784000D01*
X138428000Y-113784000D02*
X142313000Y-113784000D01*
X142313000Y-111514000D02*
X138428000Y-111514000D01*
%TO.C,R1*%
X138948936Y-107739000D02*
X139403064Y-107739000D01*
X138948936Y-109209000D02*
X139403064Y-109209000D01*
%TO.C,C1*%
X132821000Y-91975252D02*
X132821000Y-90552748D01*
X134641000Y-91975252D02*
X134641000Y-90552748D01*
%TD*%
M02*
