%TF.GenerationSoftware,KiCad,Pcbnew,(7.0.0)*%
%TF.CreationDate,2023-03-25T14:20:40+00:00*%
%TF.ProjectId,connector,636f6e6e-6563-4746-9f72-2e6b69636164,rev?*%
%TF.SameCoordinates,Original*%
%TF.FileFunction,Copper,L2,Inr*%
%TF.FilePolarity,Positive*%
%FSLAX46Y46*%
G04 Gerber Fmt 4.6, Leading zero omitted, Abs format (unit mm)*
G04 Created by KiCad (PCBNEW (7.0.0)) date 2023-03-25 14:20:40*
%MOMM*%
%LPD*%
G01*
G04 APERTURE LIST*
%TA.AperFunction,ViaPad*%
%ADD10C,0.800000*%
%TD*%
%TA.AperFunction,Conductor*%
%ADD11C,0.250000*%
%TD*%
G04 APERTURE END LIST*
D10*
%TO.N,/~{SE1}*%
X131826000Y-107823000D03*
%TO.N,/WEL*%
X129540000Y-95853500D03*
%TO.N,/A9*%
X123174695Y-75946000D03*
%TO.N,/D4*%
X123784674Y-89503931D03*
X126749500Y-90170000D03*
%TO.N,/D3*%
X144436500Y-89281000D03*
%TO.N,/A19*%
X133947500Y-78702500D03*
%TO.N,Net-(U3-CE#)*%
X127000000Y-107061000D03*
%TO.N,GND*%
X125222000Y-97917000D03*
%TO.N,/D2*%
X123772500Y-96049500D03*
%TO.N,/D1*%
X123724500Y-100487511D03*
%TO.N,/D0*%
X147447000Y-101261500D03*
X123000000Y-101219000D03*
%TO.N,/A0*%
X122555000Y-97536000D03*
%TO.N,/A1*%
X149860000Y-100330000D03*
X122399963Y-102018350D03*
%TO.N,/A2*%
X151257000Y-104136201D03*
X121724500Y-102755066D03*
%TO.N,/A3*%
X152654000Y-104775000D03*
X120899722Y-103319642D03*
%TO.N,/A11*%
X132170000Y-86068500D03*
%TO.N,/A8*%
X133768500Y-86068500D03*
%TO.N,/ROE*%
X130302000Y-71501000D03*
%TO.N,/A11*%
X131445000Y-76182392D03*
X126073500Y-76454000D03*
%TO.N,/D7*%
X127343500Y-94712313D03*
%TO.N,/~{SE1}*%
X127127000Y-76099500D03*
X127889000Y-71501000D03*
%TO.N,/D6*%
X148336500Y-100292500D03*
X126365000Y-100711000D03*
X125476000Y-71501000D03*
%TO.N,/D3*%
X124206000Y-71501000D03*
%TO.N,/~{SE1}*%
X126492000Y-87211500D03*
X130048500Y-87503000D03*
X132080000Y-102616000D03*
%TO.N,Net-(D1-K)*%
X131318000Y-112776000D03*
X129159000Y-102832500D03*
%TO.N,/D5*%
X146341500Y-89027000D03*
%TO.N,/D6*%
X148336000Y-90118000D03*
%TO.N,/D4*%
X145885500Y-90043000D03*
X126746000Y-95631000D03*
X122936000Y-71501000D03*
%TO.N,/A17*%
X119544500Y-83185000D03*
X120396000Y-71501000D03*
%TO.N,/D7*%
X126619000Y-71501000D03*
X149061000Y-103619500D03*
X128000000Y-102743000D03*
X148881500Y-88677500D03*
%TO.N,/A10*%
X124199500Y-88523890D03*
%TO.N,Net-(U3-CE#)*%
X128038181Y-90925459D03*
X150780500Y-90297500D03*
%TO.N,/A10*%
X151421500Y-88900000D03*
%TO.N,GND*%
X129540000Y-106807000D03*
%TO.N,/ROE*%
X153320500Y-90551000D03*
%TO.N,/A11*%
X153961500Y-87625109D03*
%TO.N,/A9*%
X133620500Y-73914000D03*
X123772500Y-90551000D03*
X155231500Y-90297000D03*
%TO.N,/A8*%
X156813500Y-87824799D03*
%TO.N,/D3*%
X124785632Y-89347562D03*
X144526000Y-106553000D03*
%TO.N,/D4*%
X145796000Y-106553000D03*
%TO.N,/D6*%
X148336000Y-106426000D03*
%TO.N,/D7*%
X149606000Y-106553000D03*
%TO.N,/A10*%
X152146000Y-106680000D03*
%TO.N,/A11*%
X154686000Y-106553000D03*
%TO.N,/A9*%
X156083000Y-106680000D03*
%TO.N,/A8*%
X157226000Y-106680000D03*
%TO.N,/D5*%
X147066000Y-106553000D03*
X146177000Y-97536000D03*
X127224500Y-97744227D03*
X122555000Y-95885000D03*
X121666000Y-71501000D03*
%TO.N,/A8*%
X135382000Y-71628000D03*
X132842000Y-76581000D03*
X122659057Y-76999500D03*
%TO.N,/ROE*%
X153416000Y-106680000D03*
X153416000Y-100076000D03*
X129188232Y-100483500D03*
%TO.N,/A13*%
X128524000Y-75946000D03*
X136312500Y-86068500D03*
X136646000Y-74803000D03*
%TO.N,/WEL*%
X138261500Y-86680652D03*
X136312500Y-95853500D03*
X137896000Y-71501000D03*
%TO.N,/A13*%
X158623000Y-106680000D03*
X159004000Y-87084500D03*
%TO.N,/WEL*%
X159766000Y-106680000D03*
X159328297Y-88392000D03*
%TO.N,Net-(JP1-A)*%
X150876000Y-110363000D03*
X128270000Y-109093000D03*
%TO.N,/A14*%
X142896000Y-80338500D03*
X127775500Y-81153000D03*
%TO.N,/D2*%
X145796000Y-80682500D03*
X144526000Y-96874500D03*
%TO.N,/D1*%
X147066000Y-80645000D03*
X147074952Y-98768500D03*
%TO.N,/D0*%
X148336000Y-80645000D03*
X147790500Y-97155000D03*
%TO.N,/A0*%
X149606000Y-80682500D03*
X149863949Y-97167548D03*
%TO.N,/A1*%
X151003000Y-80645000D03*
X150421752Y-97996922D03*
%TO.N,/A2*%
X152146000Y-80682500D03*
X151511000Y-99314000D03*
%TO.N,/A3*%
X153416000Y-80645000D03*
X152691500Y-97206089D03*
%TO.N,/A6*%
X121793000Y-77528000D03*
X157226000Y-77089000D03*
%TO.N,/A5*%
X156391548Y-99005451D03*
X155956000Y-80518000D03*
X121724500Y-81661000D03*
%TO.N,/A4*%
X154781500Y-97155000D03*
X154693803Y-81413611D03*
X121031000Y-82931000D03*
%TO.N,/A6*%
X157263500Y-97379313D03*
X157226000Y-80518000D03*
%TO.N,/A7*%
X158623000Y-83666500D03*
X122500000Y-83185000D03*
X157734000Y-98298000D03*
X158496000Y-80645000D03*
%TO.N,/A15*%
X163232000Y-82550000D03*
X128307000Y-83439000D03*
%TO.N,/A12*%
X159808500Y-83216500D03*
X127463541Y-83975267D03*
X159778797Y-97028000D03*
X159766000Y-80391000D03*
%TO.N,GND*%
X129540000Y-112395000D03*
X144526000Y-80645000D03*
X140208000Y-81788000D03*
X142875000Y-95250000D03*
X133731000Y-88519000D03*
X123190000Y-103917500D03*
X145415000Y-71628000D03*
X139954000Y-97790000D03*
X144145000Y-71628000D03*
%TO.N,/A14*%
X161228297Y-96974895D03*
X142748000Y-82581500D03*
X161069141Y-81229798D03*
%TO.N,/A15*%
X163322000Y-75311000D03*
X162306000Y-106299000D03*
X162433000Y-90297000D03*
%TO.N,/A16*%
X129286000Y-83164500D03*
X162306000Y-97028000D03*
X162507500Y-80772000D03*
%TO.N,/A17*%
X130265487Y-85468748D03*
X161163000Y-86614000D03*
X161344954Y-106573585D03*
%TO.N,/A19*%
X134239000Y-106172000D03*
X118872000Y-78359000D03*
X131445000Y-78702500D03*
%TO.N,/A18*%
X130302000Y-77978000D03*
X163957000Y-80518000D03*
X163957000Y-77216000D03*
X163957000Y-96901000D03*
X118571123Y-76962000D03*
%TD*%
D11*
%TO.N,/A2*%
X121736566Y-102743000D02*
X121724500Y-102755066D01*
X126238296Y-102743000D02*
X121736566Y-102743000D01*
X127127296Y-103632000D02*
X126238296Y-102743000D01*
X128252604Y-103632000D02*
X127127296Y-103632000D01*
X128628104Y-104007500D02*
X128252604Y-103632000D01*
X148302195Y-103886000D02*
X129767201Y-103886000D01*
X129767201Y-103886000D02*
X129645701Y-104007500D01*
X148760695Y-104344500D02*
X148302195Y-103886000D01*
X129645701Y-104007500D02*
X128628104Y-104007500D01*
X151048701Y-104344500D02*
X148760695Y-104344500D01*
X151257000Y-104136201D02*
X151048701Y-104344500D01*
%TO.N,/D2*%
X127735500Y-96874500D02*
X144526000Y-96874500D01*
X127439000Y-96578000D02*
X127735500Y-96874500D01*
X124301000Y-96578000D02*
X127439000Y-96578000D01*
X123772500Y-96049500D02*
X124301000Y-96578000D01*
%TO.N,/D5*%
X126672273Y-97192000D02*
X123862000Y-97192000D01*
X127224500Y-97744227D02*
X126672273Y-97192000D01*
X123862000Y-97192000D02*
X122555000Y-95885000D01*
%TO.N,Net-(U3-CE#)*%
X145660195Y-90843000D02*
X150235000Y-90843000D01*
X145368195Y-90551000D02*
X145660195Y-90843000D01*
X150235000Y-90843000D02*
X150780500Y-90297500D01*
X128412640Y-90551000D02*
X145368195Y-90551000D01*
X128038181Y-90925459D02*
X128412640Y-90551000D01*
%TO.N,/A9*%
X154235500Y-91293000D02*
X155231500Y-90297000D01*
X145473799Y-91293000D02*
X154235500Y-91293000D01*
X140618805Y-91001000D02*
X145181799Y-91001000D01*
X140381305Y-91238500D02*
X140618805Y-91001000D01*
X139198195Y-91821000D02*
X139780695Y-91238500D01*
X145181799Y-91001000D02*
X145473799Y-91293000D01*
X125042500Y-91821000D02*
X139198195Y-91821000D01*
X123772500Y-90551000D02*
X125042500Y-91821000D01*
X139780695Y-91238500D02*
X140381305Y-91238500D01*
%TO.N,/D5*%
X145034000Y-98679000D02*
X146177000Y-97536000D01*
X135509000Y-98679000D02*
X145034000Y-98679000D01*
%TO.N,/WEL*%
X129540000Y-95853500D02*
X136312500Y-95853500D01*
%TO.N,/D5*%
X128159273Y-98679000D02*
X135509000Y-98679000D01*
X127224500Y-97744227D02*
X128159273Y-98679000D01*
%TO.N,/A1*%
X123225955Y-102018350D02*
X122399963Y-102018350D01*
X123321305Y-101923000D02*
X123225955Y-102018350D01*
X128209208Y-101923000D02*
X123321305Y-101923000D01*
X128394208Y-102108000D02*
X128209208Y-101923000D01*
X131449188Y-102108000D02*
X128394208Y-102108000D01*
X132084188Y-101473000D02*
X131449188Y-102108000D01*
X145796000Y-101473000D02*
X132084188Y-101473000D01*
X146309500Y-101986500D02*
X145796000Y-101473000D01*
X148457500Y-101986500D02*
X146309500Y-101986500D01*
X149860000Y-100584000D02*
X148457500Y-101986500D01*
X149860000Y-100330000D02*
X149860000Y-100584000D01*
%TO.N,/D0*%
X123254000Y-101473000D02*
X123000000Y-101219000D01*
X128580604Y-101658000D02*
X128395604Y-101473000D01*
X146264278Y-100987000D02*
X131933792Y-100987000D01*
X146538778Y-101261500D02*
X146264278Y-100987000D01*
X131933792Y-100987000D02*
X131262792Y-101658000D01*
X128395604Y-101473000D02*
X123254000Y-101473000D01*
X147447000Y-101261500D02*
X146538778Y-101261500D01*
X131262792Y-101658000D02*
X128580604Y-101658000D01*
%TO.N,/D6*%
X128270000Y-100711000D02*
X126365000Y-100711000D01*
X128767000Y-101208000D02*
X128270000Y-100711000D01*
X131747396Y-100537000D02*
X131076396Y-101208000D01*
X148092000Y-100537000D02*
X131747396Y-100537000D01*
X148336500Y-100292500D02*
X148092000Y-100537000D01*
X131076396Y-101208000D02*
X128767000Y-101208000D01*
%TO.N,/ROE*%
X151247695Y-100076000D02*
X153416000Y-100076000D01*
X150786000Y-99614305D02*
X151247695Y-100076000D01*
X150786000Y-99568000D02*
X150786000Y-99614305D01*
X147156070Y-99568000D02*
X150786000Y-99568000D01*
X146637070Y-100087000D02*
X147156070Y-99568000D01*
X130594812Y-100541000D02*
X131107000Y-100541000D01*
X131561000Y-100087000D02*
X146637070Y-100087000D01*
X129404232Y-100699500D02*
X130436312Y-100699500D01*
X130436312Y-100699500D02*
X130594812Y-100541000D01*
X129188232Y-100483500D02*
X129404232Y-100699500D01*
X131107000Y-100541000D02*
X131561000Y-100087000D01*
%TO.N,/D1*%
X124575011Y-99637000D02*
X123724500Y-100487511D01*
X146206452Y-99637000D02*
X124575011Y-99637000D01*
X147074952Y-98768500D02*
X146206452Y-99637000D01*
%TO.N,/A13*%
X129133117Y-75840695D02*
X129027812Y-75946000D01*
X130535701Y-75840695D02*
X129133117Y-75840695D01*
X131700396Y-74676000D02*
X130535701Y-75840695D01*
X136519000Y-74676000D02*
X131700396Y-74676000D01*
X129027812Y-75946000D02*
X128524000Y-75946000D01*
X136646000Y-74803000D02*
X136519000Y-74676000D01*
%TO.N,/A9*%
X130519000Y-75221000D02*
X131826000Y-73914000D01*
X125556195Y-75946000D02*
X126281195Y-75221000D01*
X131826000Y-73914000D02*
X133620500Y-73914000D01*
X123174695Y-75946000D02*
X125556195Y-75946000D01*
X126281195Y-75221000D02*
X130519000Y-75221000D01*
%TO.N,/D4*%
X124060632Y-89503931D02*
X123784674Y-89503931D01*
X124060632Y-89647867D02*
X124060632Y-89503931D01*
X124582765Y-90170000D02*
X124060632Y-89647867D01*
X126749500Y-90170000D02*
X124582765Y-90170000D01*
X142061000Y-89789000D02*
X142315000Y-90043000D01*
X126873000Y-89789000D02*
X142061000Y-89789000D01*
X126749500Y-89912500D02*
X126873000Y-89789000D01*
X142315000Y-90043000D02*
X145885500Y-90043000D01*
X126749500Y-90170000D02*
X126749500Y-89912500D01*
%TO.N,/D3*%
X144414500Y-89303000D02*
X144436500Y-89281000D01*
X124785632Y-89347562D02*
X124830194Y-89303000D01*
X124830194Y-89303000D02*
X144414500Y-89303000D01*
%TO.N,/A0*%
X148987497Y-98044000D02*
X149863949Y-97167548D01*
X146694305Y-98044000D02*
X148987497Y-98044000D01*
X124206000Y-99187000D02*
X145551305Y-99187000D01*
X122555000Y-97536000D02*
X124206000Y-99187000D01*
X145551305Y-99187000D02*
X146694305Y-98044000D01*
%TO.N,/A3*%
X152568299Y-104860701D02*
X152654000Y-104775000D01*
X148640500Y-104860701D02*
X152568299Y-104860701D01*
X129895597Y-104394000D02*
X148173799Y-104394000D01*
X129832097Y-104457500D02*
X129895597Y-104394000D01*
X126940900Y-104082000D02*
X128066208Y-104082000D01*
X128441708Y-104457500D02*
X129832097Y-104457500D01*
X128066208Y-104082000D02*
X128441708Y-104457500D01*
X126051900Y-103193000D02*
X126940900Y-104082000D01*
X122311871Y-103193000D02*
X126051900Y-103193000D01*
X122024805Y-103480066D02*
X122311871Y-103193000D01*
X121060146Y-103480066D02*
X122024805Y-103480066D01*
X148173799Y-104394000D02*
X148640500Y-104860701D01*
X120899722Y-103319642D02*
X121060146Y-103480066D01*
%TO.N,/D7*%
X148819500Y-103378000D02*
X149061000Y-103619500D01*
X129638805Y-103378000D02*
X148819500Y-103378000D01*
X129459305Y-103557500D02*
X129638805Y-103378000D01*
X128000000Y-102743000D02*
X128814500Y-103557500D01*
X128814500Y-103557500D02*
X129459305Y-103557500D01*
%TO.N,/A18*%
X119861623Y-78252500D02*
X130027500Y-78252500D01*
X118571123Y-76962000D02*
X119861623Y-78252500D01*
X130027500Y-78252500D02*
X130302000Y-77978000D01*
%TO.N,/A19*%
X118872000Y-78359000D02*
X119215500Y-78702500D01*
X119215500Y-78702500D02*
X131445000Y-78702500D01*
%TO.N,/A17*%
X124076748Y-85468748D02*
X130265487Y-85468748D01*
X122518000Y-83910000D02*
X124076748Y-85468748D01*
X119544500Y-83185000D02*
X120269500Y-83910000D01*
X120269500Y-83910000D02*
X122518000Y-83910000D01*
%TO.N,/A8*%
X132516108Y-76906892D02*
X132842000Y-76581000D01*
X130726396Y-76740695D02*
X130892593Y-76906892D01*
X129505909Y-76740695D02*
X130726396Y-76740695D01*
X130892593Y-76906892D02*
X132516108Y-76906892D01*
X128972604Y-77274000D02*
X129505909Y-76740695D01*
X122933557Y-77274000D02*
X128972604Y-77274000D01*
X122659057Y-76999500D02*
X122933557Y-77274000D01*
%TO.N,/A6*%
X156958108Y-77356892D02*
X157226000Y-77089000D01*
X130706197Y-77356892D02*
X156958108Y-77356892D01*
X129692305Y-77190695D02*
X130540000Y-77190695D01*
X130540000Y-77190695D02*
X130706197Y-77356892D01*
X129159000Y-77724000D02*
X129692305Y-77190695D01*
X121989000Y-77724000D02*
X129159000Y-77724000D01*
X121793000Y-77528000D02*
X121989000Y-77724000D01*
%TO.N,/A11*%
X126443500Y-76824000D02*
X126073500Y-76454000D01*
X131336697Y-76290695D02*
X129319513Y-76290695D01*
X128786208Y-76824000D02*
X126443500Y-76824000D01*
X131445000Y-76182392D02*
X131336697Y-76290695D01*
X129319513Y-76290695D02*
X128786208Y-76824000D01*
%TO.N,/A17*%
X159893000Y-85344000D02*
X161163000Y-86614000D01*
X130390235Y-85344000D02*
X159893000Y-85344000D01*
X130265487Y-85468748D02*
X130390235Y-85344000D01*
%TO.N,/A7*%
X156236500Y-83666500D02*
X158623000Y-83666500D01*
X155702000Y-84201000D02*
X156236500Y-83666500D01*
X144062993Y-84201000D02*
X155702000Y-84201000D01*
X140320708Y-84656500D02*
X143607493Y-84656500D01*
X143607493Y-84656500D02*
X144062993Y-84201000D01*
X140246208Y-84582000D02*
X140320708Y-84656500D01*
X124151000Y-84836000D02*
X129912597Y-84836000D01*
X122500000Y-83185000D02*
X124151000Y-84836000D01*
X129912597Y-84836000D02*
X130166597Y-84582000D01*
X130166597Y-84582000D02*
X140246208Y-84582000D01*
%TO.N,/A10*%
X151421500Y-88175500D02*
X151421500Y-88900000D01*
X150945000Y-87699000D02*
X151421500Y-88175500D01*
X140621597Y-87699000D02*
X150945000Y-87699000D01*
X140014945Y-88305652D02*
X140621597Y-87699000D01*
X137588403Y-88305652D02*
X140014945Y-88305652D01*
X137177751Y-87895000D02*
X137588403Y-88305652D01*
X134250000Y-87895000D02*
X137177751Y-87895000D01*
X131376000Y-87318000D02*
X133673000Y-87318000D01*
X130466000Y-88228000D02*
X131376000Y-87318000D01*
X129473195Y-87953000D02*
X129748195Y-88228000D01*
X124770390Y-87953000D02*
X129473195Y-87953000D01*
X129748195Y-88228000D02*
X130466000Y-88228000D01*
X124199500Y-88523890D02*
X124770390Y-87953000D01*
X133673000Y-87318000D02*
X134250000Y-87895000D01*
%TO.N,/A11*%
X153585391Y-87249000D02*
X153961500Y-87625109D01*
X140435201Y-87249000D02*
X153585391Y-87249000D01*
X139828549Y-87855652D02*
X140435201Y-87249000D01*
X137774799Y-87855652D02*
X139828549Y-87855652D01*
X134508604Y-87445000D02*
X137364147Y-87445000D01*
X137364147Y-87445000D02*
X137774799Y-87855652D01*
X133931604Y-86868000D02*
X134508604Y-87445000D01*
X132550500Y-86068500D02*
X133350000Y-86868000D01*
X132170000Y-86068500D02*
X132550500Y-86068500D01*
X133350000Y-86868000D02*
X133931604Y-86868000D01*
%TO.N,/A8*%
X156491201Y-87502500D02*
X156813500Y-87824799D01*
X156491201Y-87403201D02*
X156491201Y-87502500D01*
X139642153Y-87405652D02*
X140306805Y-86741000D01*
X155829000Y-86741000D02*
X156491201Y-87403201D01*
X137961195Y-87405652D02*
X139642153Y-87405652D01*
X137550543Y-86995000D02*
X137961195Y-87405652D01*
X134695000Y-86995000D02*
X137550543Y-86995000D01*
X140306805Y-86741000D02*
X155829000Y-86741000D01*
X133768500Y-86068500D02*
X134695000Y-86995000D01*
%TO.N,/WEL*%
X156348000Y-86244000D02*
X158496000Y-88392000D01*
X139689000Y-86244000D02*
X156348000Y-86244000D01*
X139252348Y-86680652D02*
X139689000Y-86244000D01*
X158496000Y-88392000D02*
X159328297Y-88392000D01*
X138261500Y-86680652D02*
X139252348Y-86680652D01*
%TO.N,/A14*%
X127902500Y-81026000D02*
X127775500Y-81153000D01*
X139721299Y-80613000D02*
X139308299Y-81026000D01*
X142621500Y-80613000D02*
X139721299Y-80613000D01*
X139308299Y-81026000D02*
X127902500Y-81026000D01*
X142896000Y-80338500D02*
X142621500Y-80613000D01*
%TO.N,/A13*%
X157713500Y-85794000D02*
X159004000Y-87084500D01*
X136312500Y-86068500D02*
X136587000Y-85794000D01*
X136587000Y-85794000D02*
X157713500Y-85794000D01*
%TO.N,/~{SE1}*%
X126783500Y-87503000D02*
X130048500Y-87503000D01*
X126492000Y-87211500D02*
X126783500Y-87503000D01*
%TO.N,/A12*%
X159543500Y-83216500D02*
X159808500Y-83216500D01*
X159269000Y-82942000D02*
X159543500Y-83216500D01*
X156099907Y-82942000D02*
X159269000Y-82942000D01*
X155384907Y-83657000D02*
X156099907Y-82942000D01*
X143970597Y-83657000D02*
X155384907Y-83657000D01*
X143421097Y-84206500D02*
X143970597Y-83657000D01*
X140374604Y-84074000D02*
X140507104Y-84206500D01*
X130038201Y-84074000D02*
X140374604Y-84074000D01*
X127817962Y-83975267D02*
X128182195Y-84339500D01*
X127463541Y-83975267D02*
X127817962Y-83975267D01*
X129772701Y-84339500D02*
X130038201Y-84074000D01*
X128182195Y-84339500D02*
X129772701Y-84339500D01*
X140507104Y-84206500D02*
X143421097Y-84206500D01*
%TO.N,/A19*%
X133947500Y-78702500D02*
X131445000Y-78702500D01*
%TO.N,Net-(JP1-A)*%
X129159000Y-109093000D02*
X130429000Y-110363000D01*
X128270000Y-109093000D02*
X129159000Y-109093000D01*
X130429000Y-110363000D02*
X150876000Y-110363000D01*
%TO.N,/A15*%
X128757500Y-83889500D02*
X128307000Y-83439000D01*
X129586305Y-83889500D02*
X128757500Y-83889500D01*
X129861305Y-83614500D02*
X129586305Y-83889500D01*
X140551500Y-83614500D02*
X129861305Y-83614500D01*
X140693500Y-83756500D02*
X140551500Y-83614500D01*
X143234701Y-83756500D02*
X140693500Y-83756500D01*
X155198511Y-83207000D02*
X143784201Y-83207000D01*
X155913511Y-82492000D02*
X155198511Y-83207000D01*
X143784201Y-83207000D02*
X143234701Y-83756500D01*
X163232000Y-82550000D02*
X163174000Y-82492000D01*
X163174000Y-82492000D02*
X155913511Y-82492000D01*
%TO.N,/A16*%
X162507500Y-81332500D02*
X162507500Y-80772000D01*
X155727115Y-82042000D02*
X161798000Y-82042000D01*
X161798000Y-82042000D02*
X162507500Y-81332500D01*
X143597805Y-82757000D02*
X155012115Y-82757000D01*
X143048305Y-83306500D02*
X143597805Y-82757000D01*
X155012115Y-82757000D02*
X155727115Y-82042000D01*
X140879896Y-83306500D02*
X143048305Y-83306500D01*
X129286000Y-83164500D02*
X140737896Y-83164500D01*
X140737896Y-83164500D02*
X140879896Y-83306500D01*
%TO.N,/A14*%
X154825719Y-82307000D02*
X155598719Y-81534000D01*
X143022500Y-82307000D02*
X154825719Y-82307000D01*
X155598719Y-81534000D02*
X160764939Y-81534000D01*
X160764939Y-81534000D02*
X161069141Y-81229798D01*
X142748000Y-82581500D02*
X143022500Y-82307000D01*
%TO.N,/A4*%
X129586305Y-82439500D02*
X121522500Y-82439500D01*
X121522500Y-82439500D02*
X121031000Y-82931000D01*
X140551500Y-82714500D02*
X129861305Y-82714500D01*
X141409000Y-81857000D02*
X140551500Y-82714500D01*
X154250414Y-81857000D02*
X141409000Y-81857000D01*
X154693803Y-81413611D02*
X154250414Y-81857000D01*
X129861305Y-82714500D02*
X129586305Y-82439500D01*
%TO.N,/A5*%
X121941500Y-81878000D02*
X121724500Y-81661000D01*
X139092695Y-81878000D02*
X121941500Y-81878000D01*
X144262695Y-81407000D02*
X143918695Y-81063000D01*
X153679305Y-81407000D02*
X144262695Y-81407000D01*
X154141000Y-80945305D02*
X153679305Y-81407000D01*
X154141000Y-80936000D02*
X154141000Y-80945305D01*
X139907695Y-81063000D02*
X139092695Y-81878000D01*
X154559000Y-80518000D02*
X154141000Y-80936000D01*
X143918695Y-81063000D02*
X139907695Y-81063000D01*
X155956000Y-80518000D02*
X154559000Y-80518000D01*
%TO.N,/A18*%
X130302000Y-77978000D02*
X163195000Y-77978000D01*
X163195000Y-77978000D02*
X163957000Y-77216000D01*
%TD*%
M02*
