%TF.GenerationSoftware,KiCad,Pcbnew,(7.0.0)*%
%TF.CreationDate,2023-03-25T14:20:40+00:00*%
%TF.ProjectId,connector,636f6e6e-6563-4746-9f72-2e6b69636164,rev?*%
%TF.SameCoordinates,Original*%
%TF.FileFunction,Copper,L1,Top*%
%TF.FilePolarity,Positive*%
%FSLAX46Y46*%
G04 Gerber Fmt 4.6, Leading zero omitted, Abs format (unit mm)*
G04 Created by KiCad (PCBNEW (7.0.0)) date 2023-03-25 14:20:40*
%MOMM*%
%LPD*%
G01*
G04 APERTURE LIST*
G04 Aperture macros list*
%AMRoundRect*
0 Rectangle with rounded corners*
0 $1 Rounding radius*
0 $2 $3 $4 $5 $6 $7 $8 $9 X,Y pos of 4 corners*
0 Add a 4 corners polygon primitive as box body*
4,1,4,$2,$3,$4,$5,$6,$7,$8,$9,$2,$3,0*
0 Add four circle primitives for the rounded corners*
1,1,$1+$1,$2,$3*
1,1,$1+$1,$4,$5*
1,1,$1+$1,$6,$7*
1,1,$1+$1,$8,$9*
0 Add four rect primitives between the rounded corners*
20,1,$1+$1,$2,$3,$4,$5,0*
20,1,$1+$1,$4,$5,$6,$7,0*
20,1,$1+$1,$6,$7,$8,$9,0*
20,1,$1+$1,$8,$9,$2,$3,0*%
G04 Aperture macros list end*
%TA.AperFunction,SMDPad,CuDef*%
%ADD10R,1.500000X1.000000*%
%TD*%
%TA.AperFunction,SMDPad,CuDef*%
%ADD11RoundRect,0.150000X-0.150000X0.875000X-0.150000X-0.875000X0.150000X-0.875000X0.150000X0.875000X0*%
%TD*%
%TA.AperFunction,SMDPad,CuDef*%
%ADD12RoundRect,0.250000X0.650000X-0.325000X0.650000X0.325000X-0.650000X0.325000X-0.650000X-0.325000X0*%
%TD*%
%TA.AperFunction,SMDPad,CuDef*%
%ADD13RoundRect,0.150000X-0.150000X0.725000X-0.150000X-0.725000X0.150000X-0.725000X0.150000X0.725000X0*%
%TD*%
%TA.AperFunction,SMDPad,CuDef*%
%ADD14RoundRect,0.075000X-0.075000X0.712500X-0.075000X-0.712500X0.075000X-0.712500X0.075000X0.712500X0*%
%TD*%
%TA.AperFunction,SMDPad,CuDef*%
%ADD15RoundRect,0.250000X-0.375000X-0.625000X0.375000X-0.625000X0.375000X0.625000X-0.375000X0.625000X0*%
%TD*%
%TA.AperFunction,SMDPad,CuDef*%
%ADD16RoundRect,0.250000X-0.350000X-0.450000X0.350000X-0.450000X0.350000X0.450000X-0.350000X0.450000X0*%
%TD*%
%TA.AperFunction,ConnectorPad*%
%ADD17R,0.750000X5.000000*%
%TD*%
%TA.AperFunction,ConnectorPad*%
%ADD18R,0.750000X2.000000*%
%TD*%
%TA.AperFunction,ConnectorPad*%
%ADD19R,0.750000X3.000000*%
%TD*%
%TA.AperFunction,ConnectorPad*%
%ADD20R,0.750000X4.000000*%
%TD*%
%TA.AperFunction,ConnectorPad*%
%ADD21R,0.750000X7.500000*%
%TD*%
%TA.AperFunction,ViaPad*%
%ADD22C,0.800000*%
%TD*%
%TA.AperFunction,Conductor*%
%ADD23C,0.250000*%
%TD*%
%TA.AperFunction,Conductor*%
%ADD24C,0.500000*%
%TD*%
%TA.AperFunction,Conductor*%
%ADD25C,0.750000*%
%TD*%
%TA.AperFunction,Conductor*%
%ADD26C,0.300000*%
%TD*%
G04 APERTURE END LIST*
D10*
%TO.P,512K,1,A*%
%TO.N,Net-(JP1-A)*%
X135254999Y-109122999D03*
%TO.P,512K,2,B*%
%TO.N,/~{SE1}*%
X135254999Y-107822999D03*
%TD*%
D11*
%TO.P,U3,1,A18*%
%TO.N,/A18*%
X163576000Y-78994000D03*
%TO.P,U3,2,A16*%
%TO.N,/A16*%
X162306000Y-78994000D03*
%TO.P,U3,3,A14*%
%TO.N,/A14*%
X161036000Y-78994000D03*
%TO.P,U3,4,A12*%
%TO.N,/A12*%
X159766000Y-78994000D03*
%TO.P,U3,5,A7*%
%TO.N,/A7*%
X158496000Y-78994000D03*
%TO.P,U3,6,A6*%
%TO.N,/A6*%
X157226000Y-78994000D03*
%TO.P,U3,7,A5*%
%TO.N,/A5*%
X155956000Y-78994000D03*
%TO.P,U3,8,A4*%
%TO.N,/A4*%
X154686000Y-78994000D03*
%TO.P,U3,9,A3*%
%TO.N,/A3*%
X153416000Y-78994000D03*
%TO.P,U3,10,A2*%
%TO.N,/A2*%
X152146000Y-78994000D03*
%TO.P,U3,11,A1*%
%TO.N,/A1*%
X150876000Y-78994000D03*
%TO.P,U3,12,A0*%
%TO.N,/A0*%
X149606000Y-78994000D03*
%TO.P,U3,13,DQ0*%
%TO.N,/D0*%
X148336000Y-78994000D03*
%TO.P,U3,14,DQ1*%
%TO.N,/D1*%
X147066000Y-78994000D03*
%TO.P,U3,15,DQ2*%
%TO.N,/D2*%
X145796000Y-78994000D03*
%TO.P,U3,16,VSS*%
%TO.N,GND*%
X144526000Y-78994000D03*
%TO.P,U3,17,DQ3*%
%TO.N,/D3*%
X144526000Y-92094000D03*
%TO.P,U3,18,DQ4*%
%TO.N,/D4*%
X145796000Y-92094000D03*
%TO.P,U3,19,DQ5*%
%TO.N,/D5*%
X147066000Y-92094000D03*
%TO.P,U3,20,DQ6*%
%TO.N,/D6*%
X148336000Y-92094000D03*
%TO.P,U3,21,DQ7*%
%TO.N,/D7*%
X149606000Y-92094000D03*
%TO.P,U3,22,CE#*%
%TO.N,Net-(U3-CE#)*%
X150876000Y-92094000D03*
%TO.P,U3,23,A10*%
%TO.N,/A10*%
X152146000Y-92094000D03*
%TO.P,U3,24,OE#*%
%TO.N,/ROE*%
X153416000Y-92094000D03*
%TO.P,U3,25,A11*%
%TO.N,/A11*%
X154686000Y-92094000D03*
%TO.P,U3,26,A9*%
%TO.N,/A9*%
X155956000Y-92094000D03*
%TO.P,U3,27,A8*%
%TO.N,/A8*%
X157226000Y-92094000D03*
%TO.P,U3,28,A13*%
%TO.N,/A13*%
X158496000Y-92094000D03*
%TO.P,U3,29,WE#*%
%TO.N,/WEL*%
X159766000Y-92094000D03*
%TO.P,U3,30,A17*%
%TO.N,/A17*%
X161036000Y-92094000D03*
%TO.P,U3,31,A15*%
%TO.N,/A15*%
X162306000Y-92094000D03*
%TO.P,U3,32,VCC*%
%TO.N,VCC*%
X163576000Y-92094000D03*
%TD*%
D12*
%TO.P,C2,1*%
%TO.N,VCC*%
X139954000Y-102645000D03*
%TO.P,C2,2*%
%TO.N,GND*%
X139954000Y-99695000D03*
%TD*%
%TO.P,C3,1*%
%TO.N,VCC*%
X140208000Y-86135000D03*
%TO.P,C3,2*%
%TO.N,GND*%
X140208000Y-83185000D03*
%TD*%
D11*
%TO.P,U2,1,A18*%
%TO.N,/A18*%
X163576000Y-95250000D03*
%TO.P,U2,2,A16*%
%TO.N,/A16*%
X162306000Y-95250000D03*
%TO.P,U2,3,A14*%
%TO.N,/A14*%
X161036000Y-95250000D03*
%TO.P,U2,4,A12*%
%TO.N,/A12*%
X159766000Y-95250000D03*
%TO.P,U2,5,A7*%
%TO.N,/A7*%
X158496000Y-95250000D03*
%TO.P,U2,6,A6*%
%TO.N,/A6*%
X157226000Y-95250000D03*
%TO.P,U2,7,A5*%
%TO.N,/A5*%
X155956000Y-95250000D03*
%TO.P,U2,8,A4*%
%TO.N,/A4*%
X154686000Y-95250000D03*
%TO.P,U2,9,A3*%
%TO.N,/A3*%
X153416000Y-95250000D03*
%TO.P,U2,10,A2*%
%TO.N,/A2*%
X152146000Y-95250000D03*
%TO.P,U2,11,A1*%
%TO.N,/A1*%
X150876000Y-95250000D03*
%TO.P,U2,12,A0*%
%TO.N,/A0*%
X149606000Y-95250000D03*
%TO.P,U2,13,DQ0*%
%TO.N,/D0*%
X148336000Y-95250000D03*
%TO.P,U2,14,DQ1*%
%TO.N,/D1*%
X147066000Y-95250000D03*
%TO.P,U2,15,DQ2*%
%TO.N,/D2*%
X145796000Y-95250000D03*
%TO.P,U2,16,VSS*%
%TO.N,GND*%
X144526000Y-95250000D03*
%TO.P,U2,17,DQ3*%
%TO.N,/D3*%
X144526000Y-108350000D03*
%TO.P,U2,18,DQ4*%
%TO.N,/D4*%
X145796000Y-108350000D03*
%TO.P,U2,19,DQ5*%
%TO.N,/D5*%
X147066000Y-108350000D03*
%TO.P,U2,20,DQ6*%
%TO.N,/D6*%
X148336000Y-108350000D03*
%TO.P,U2,21,DQ7*%
%TO.N,/D7*%
X149606000Y-108350000D03*
%TO.P,U2,22,CE#*%
%TO.N,Net-(JP1-A)*%
X150876000Y-108350000D03*
%TO.P,U2,23,A10*%
%TO.N,/A10*%
X152146000Y-108350000D03*
%TO.P,U2,24,OE#*%
%TO.N,/ROE*%
X153416000Y-108350000D03*
%TO.P,U2,25,A11*%
%TO.N,/A11*%
X154686000Y-108350000D03*
%TO.P,U2,26,A9*%
%TO.N,/A9*%
X155956000Y-108350000D03*
%TO.P,U2,27,A8*%
%TO.N,/A8*%
X157226000Y-108350000D03*
%TO.P,U2,28,A13*%
%TO.N,/A13*%
X158496000Y-108350000D03*
%TO.P,U2,29,WE#*%
%TO.N,/WEL*%
X159766000Y-108350000D03*
%TO.P,U2,30,A17*%
%TO.N,/A17*%
X161036000Y-108350000D03*
%TO.P,U2,31,A15*%
%TO.N,/A15*%
X162306000Y-108350000D03*
%TO.P,U2,32,VCC*%
%TO.N,VCC*%
X163576000Y-108350000D03*
%TD*%
D13*
%TO.P,U4,1,E*%
%TO.N,/~{SE1}*%
X132080000Y-105537000D03*
%TO.P,U4,2,A0*%
%TO.N,/A19*%
X130810000Y-105537000D03*
%TO.P,U4,3,A1*%
%TO.N,GND*%
X129540000Y-105537000D03*
%TO.P,U4,4,O0*%
%TO.N,Net-(JP1-A)*%
X128270000Y-105537000D03*
%TO.P,U4,5,O1*%
%TO.N,Net-(U3-CE#)*%
X127000000Y-105537000D03*
%TO.P,U4,6,O2*%
%TO.N,unconnected-(U4A-O2-Pad6)*%
X125730000Y-105537000D03*
%TO.P,U4,7,O3*%
%TO.N,unconnected-(U4A-O3-Pad7)*%
X124460000Y-105537000D03*
%TO.P,U4,8,GND*%
%TO.N,GND*%
X123190000Y-105537000D03*
%TO.P,U4,9,O3*%
%TO.N,unconnected-(U4B-O3-Pad9)*%
X123190000Y-110687000D03*
%TO.P,U4,10,O2*%
%TO.N,unconnected-(U4B-O2-Pad10)*%
X124460000Y-110687000D03*
%TO.P,U4,11,O1*%
%TO.N,unconnected-(U4B-O1-Pad11)*%
X125730000Y-110687000D03*
%TO.P,U4,12,O0*%
%TO.N,unconnected-(U4B-O0-Pad12)*%
X127000000Y-110687000D03*
%TO.P,U4,13,A1*%
%TO.N,GND*%
X128270000Y-110687000D03*
%TO.P,U4,14,A0*%
X129540000Y-110687000D03*
%TO.P,U4,15,E*%
X130810000Y-110687000D03*
%TO.P,U4,16,VCC*%
%TO.N,VCC*%
X132080000Y-110687000D03*
%TD*%
D14*
%TO.P,U1,1,A19*%
%TO.N,/A19*%
X130500000Y-79756000D03*
%TO.P,U1,2,A18*%
%TO.N,/A18*%
X130000000Y-79756000D03*
%TO.P,U1,3,A17*%
%TO.N,/A17*%
X129500000Y-79756000D03*
%TO.P,U1,4,A16*%
%TO.N,/A16*%
X129000000Y-79756000D03*
%TO.P,U1,5,A15*%
%TO.N,/A15*%
X128500000Y-79756000D03*
%TO.P,U1,6,A14*%
%TO.N,/A14*%
X128000000Y-79756000D03*
%TO.P,U1,7,A13*%
%TO.N,/A13*%
X127500000Y-79756000D03*
%TO.P,U1,8,A12*%
%TO.N,/A12*%
X127000000Y-79756000D03*
%TO.P,U1,9,\u002ACE*%
%TO.N,/~{SE1}*%
X126500000Y-79756000D03*
%TO.P,U1,10,VCC*%
%TO.N,VCC*%
X126000000Y-79756000D03*
%TO.P,U1,11,NC*%
%TO.N,unconnected-(U1-NC-Pad11)*%
X125500000Y-79756000D03*
%TO.P,U1,12,\u002ARESET*%
%TO.N,VCC*%
X125000000Y-79756000D03*
%TO.P,U1,13,A11*%
%TO.N,/A11*%
X124500000Y-79756000D03*
%TO.P,U1,14,A10*%
%TO.N,/A10*%
X124000000Y-79756000D03*
%TO.P,U1,15,A9*%
%TO.N,/A9*%
X123500000Y-79756000D03*
%TO.P,U1,16,A8*%
%TO.N,/A8*%
X123000000Y-79756000D03*
%TO.P,U1,17,A7*%
%TO.N,/A7*%
X122500000Y-79756000D03*
%TO.P,U1,18,A6*%
%TO.N,/A6*%
X122000000Y-79756000D03*
%TO.P,U1,19,A5*%
%TO.N,/A5*%
X121500000Y-79756000D03*
%TO.P,U1,20,A4*%
%TO.N,/A4*%
X121000000Y-79756000D03*
%TO.P,U1,21,A3*%
%TO.N,/A3*%
X121000000Y-99131000D03*
%TO.P,U1,22,A2*%
%TO.N,/A2*%
X121500000Y-99131000D03*
%TO.P,U1,23,A1*%
%TO.N,/A1*%
X122000000Y-99131000D03*
%TO.P,U1,24,A0*%
%TO.N,/A0*%
X122500000Y-99131000D03*
%TO.P,U1,25,DQ0*%
%TO.N,/D0*%
X123000000Y-99131000D03*
%TO.P,U1,26,DQ1*%
%TO.N,/D1*%
X123500000Y-99131000D03*
%TO.P,U1,27,DQ2*%
%TO.N,/D2*%
X124000000Y-99131000D03*
%TO.P,U1,28,DQ3*%
%TO.N,/D3*%
X124500000Y-99131000D03*
%TO.P,U1,29,VSS*%
%TO.N,GND*%
X125000000Y-99131000D03*
%TO.P,U1,30,VSS*%
X125500000Y-99131000D03*
%TO.P,U1,31,VCC*%
%TO.N,VCC*%
X126000000Y-99131000D03*
%TO.P,U1,32,DQ4*%
%TO.N,/D4*%
X126500000Y-99131000D03*
%TO.P,U1,33,DQ5*%
%TO.N,/D5*%
X127000000Y-99131000D03*
%TO.P,U1,34,DQ6*%
%TO.N,/D6*%
X127500000Y-99131000D03*
%TO.P,U1,35,DQ7*%
%TO.N,/D7*%
X128000000Y-99131000D03*
%TO.P,U1,36,RY/\u002ABY*%
%TO.N,Net-(D1-K)*%
X128500000Y-99131000D03*
%TO.P,U1,37,\u002AOE*%
%TO.N,/ROE*%
X129000000Y-99131000D03*
%TO.P,U1,38,\u002AWE*%
%TO.N,/WEL*%
X129500000Y-99131000D03*
%TO.P,U1,39,NC*%
%TO.N,unconnected-(U1-NC-Pad39)*%
X130000000Y-99131000D03*
%TO.P,U1,40,NC*%
%TO.N,unconnected-(U1-NC-Pad40)*%
X130500000Y-99131000D03*
%TD*%
D15*
%TO.P,D1,1,K*%
%TO.N,Net-(D1-K)*%
X139313000Y-112649000D03*
%TO.P,D1,2,A*%
%TO.N,Net-(D1-A)*%
X142113000Y-112649000D03*
%TD*%
D16*
%TO.P,R1,1*%
%TO.N,VCC*%
X138176000Y-108474000D03*
%TO.P,R1,2*%
%TO.N,Net-(D1-A)*%
X140176000Y-108474000D03*
%TD*%
D12*
%TO.P,C1,1*%
%TO.N,VCC*%
X133731000Y-92739000D03*
%TO.P,C1,2*%
%TO.N,GND*%
X133731000Y-89789000D03*
%TD*%
D17*
%TO.P,J1,1,Pin_1*%
%TO.N,/A16*%
X164145999Y-68134999D03*
D18*
%TO.P,J1,1n,Pin_39*%
%TO.N,unconnected-(J1-Pin_39-Pad1n)*%
X164165999Y-64134999D03*
D17*
%TO.P,J1,2,Pin_2*%
%TO.N,/A15*%
X162895999Y-68134999D03*
D18*
%TO.P,J1,2n,Pin_40*%
%TO.N,unconnected-(J1-Pin_40-Pad2n)*%
X162895999Y-64134999D03*
D17*
%TO.P,J1,3,Pin_3*%
%TO.N,/A12*%
X161645999Y-68134999D03*
D18*
%TO.P,J1,3n,Pin_41*%
%TO.N,unconnected-(J1-Pin_41-Pad3n)*%
X161645999Y-64134999D03*
D17*
%TO.P,J1,4,Pin_4*%
%TO.N,/A7*%
X160395999Y-68134999D03*
D18*
%TO.P,J1,4n,Pin_42*%
%TO.N,unconnected-(J1-Pin_42-Pad4n)*%
X160395999Y-64134999D03*
D17*
%TO.P,J1,5,Pin_5*%
%TO.N,/A6*%
X159145999Y-68134999D03*
D18*
%TO.P,J1,5n,Pin_43*%
%TO.N,unconnected-(J1-Pin_43-Pad5n)*%
X159145999Y-64134999D03*
D17*
%TO.P,J1,6,Pin_6*%
%TO.N,/A5*%
X157895999Y-68134999D03*
D18*
%TO.P,J1,6n,Pin_44*%
%TO.N,unconnected-(J1-Pin_44-Pad6n)*%
X157895999Y-64134999D03*
D17*
%TO.P,J1,7,Pin_7*%
%TO.N,/A4*%
X156645999Y-68134999D03*
D18*
%TO.P,J1,7n,Pin_45*%
%TO.N,unconnected-(J1-Pin_45-Pad7n)*%
X156645999Y-64134999D03*
D17*
%TO.P,J1,8,Pin_8*%
%TO.N,/A3*%
X155395999Y-68134999D03*
D18*
%TO.P,J1,8n,Pin_46*%
%TO.N,unconnected-(J1-Pin_46-Pad8n)*%
X155395999Y-64134999D03*
D17*
%TO.P,J1,9,Pin_9*%
%TO.N,/A2*%
X154145999Y-68134999D03*
D18*
%TO.P,J1,9n,Pin_47*%
%TO.N,unconnected-(J1-Pin_47-Pad9n)*%
X154145999Y-64134999D03*
D17*
%TO.P,J1,10,Pin_10*%
%TO.N,/A1*%
X152895999Y-68134999D03*
D18*
%TO.P,J1,10n,Pin_48*%
%TO.N,unconnected-(J1-Pin_48-Pad10n)*%
X152895999Y-64134999D03*
D17*
%TO.P,J1,11,Pin_11*%
%TO.N,/A0*%
X151645999Y-68134999D03*
D18*
%TO.P,J1,11n,Pin_49*%
%TO.N,unconnected-(J1-Pin_49-Pad11n)*%
X151645999Y-64134999D03*
D19*
%TO.P,J1,12,Pin_12*%
%TO.N,/D0*%
X150395999Y-69134999D03*
D20*
%TO.P,J1,12n,Pin_50*%
%TO.N,unconnected-(J1-Pin_50-Pad12n)*%
X150395999Y-65134999D03*
D19*
%TO.P,J1,13,Pin_13*%
%TO.N,/D1*%
X149145999Y-69134999D03*
D20*
%TO.P,J1,13n,Pin_51*%
%TO.N,unconnected-(J1-Pin_51-Pad13n)*%
X149145999Y-65134999D03*
D19*
%TO.P,J1,14,Pin_14*%
%TO.N,/D2*%
X147895999Y-69134999D03*
D20*
%TO.P,J1,14n,Pin_52*%
%TO.N,unconnected-(J1-Pin_52-Pad14n)*%
X147895999Y-65134999D03*
D18*
%TO.P,J1,15,GND*%
%TO.N,unconnected-(J1-GND-Pad15)*%
X146645999Y-69634999D03*
D17*
%TO.P,J1,15n,Pin_53*%
%TO.N,GND*%
X146645999Y-65634999D03*
D21*
%TO.P,J1,16,GND*%
X145395999Y-66884999D03*
%TO.P,J1,17,GND*%
X144145999Y-66884999D03*
D17*
%TO.P,J1,18,Pin_18*%
%TO.N,/A14*%
X142895999Y-68134999D03*
D18*
%TO.P,J1,18n,Pin_56*%
%TO.N,unconnected-(J1-Pin_56-Pad18n)*%
X142895999Y-64134999D03*
D20*
%TO.P,J1,19,Pin_19*%
%TO.N,VCC*%
X141645999Y-68634999D03*
D19*
%TO.P,J1,19n,Pin_57*%
%TO.N,unconnected-(J1-Pin_57-Pad19n)*%
X141645999Y-64634999D03*
D20*
%TO.P,J1,20,Pin_20*%
%TO.N,VCC*%
X140395999Y-68634999D03*
D19*
%TO.P,J1,20n,Pin_58*%
%TO.N,unconnected-(J1-Pin_58-Pad20n)*%
X140395999Y-64634999D03*
D20*
%TO.P,J1,21,Pin_21*%
%TO.N,VCC*%
X139145999Y-68634999D03*
D19*
%TO.P,J1,21n,Pin_59*%
%TO.N,unconnected-(J1-Pin_59-Pad21n)*%
X139145999Y-64634999D03*
D17*
%TO.P,J1,22,Pin_22*%
%TO.N,/WEL*%
X137895999Y-68134999D03*
D18*
%TO.P,J1,22n,Pin_60*%
%TO.N,unconnected-(J1-Pin_60-Pad22n)*%
X137895999Y-64134999D03*
D17*
%TO.P,J1,23,Pin_23*%
%TO.N,/A13*%
X136645999Y-68134999D03*
D18*
%TO.P,J1,23n,Pin_61*%
%TO.N,unconnected-(J1-Pin_61-Pad23n)*%
X136645999Y-64134999D03*
D17*
%TO.P,J1,24,Pin_24*%
%TO.N,/A8*%
X135395999Y-68134999D03*
D18*
%TO.P,J1,24n,Pin_62*%
%TO.N,unconnected-(J1-Pin_62-Pad24n)*%
X135395999Y-64134999D03*
D17*
%TO.P,J1,25,Pin_25*%
%TO.N,/A9*%
X134145999Y-68134999D03*
D18*
%TO.P,J1,25n,Pin_63*%
%TO.N,unconnected-(J1-Pin_63-Pad25n)*%
X134145999Y-64134999D03*
D17*
%TO.P,J1,26,Pin_26*%
%TO.N,/A11*%
X132895999Y-68134999D03*
D18*
%TO.P,J1,26n,Pin_64*%
%TO.N,unconnected-(J1-Pin_64-Pad26n)*%
X132895999Y-64134999D03*
D17*
%TO.P,J1,27,Pin_27*%
%TO.N,unconnected-(J1-Pin_27-Pad27)*%
X131645999Y-68134999D03*
D18*
%TO.P,J1,27n,Pin_65*%
%TO.N,unconnected-(J1-Pin_65-Pad27n)*%
X131645999Y-64134999D03*
D17*
%TO.P,J1,28,Pin_28*%
%TO.N,/ROE*%
X130395999Y-68134999D03*
D18*
%TO.P,J1,28n,Pin_66*%
%TO.N,unconnected-(J1-Pin_66-Pad28n)*%
X130395999Y-64134999D03*
D17*
%TO.P,J1,29,Pin_29*%
%TO.N,/A10*%
X129145999Y-68134999D03*
D18*
%TO.P,J1,29n,Pin_67*%
%TO.N,unconnected-(J1-Pin_67-Pad29n)*%
X129145999Y-64134999D03*
D17*
%TO.P,J1,30,Pin_30*%
%TO.N,/~{SE1}*%
X127895999Y-68134999D03*
D18*
%TO.P,J1,30n,Pin_68*%
%TO.N,unconnected-(J1-Pin_68-Pad30n)*%
X127895999Y-64134999D03*
D19*
%TO.P,J1,31,Pin_31*%
%TO.N,/D7*%
X126645999Y-69134999D03*
D20*
%TO.P,J1,31n,Pin_69*%
%TO.N,unconnected-(J1-Pin_69-Pad31n)*%
X126645999Y-65134999D03*
D19*
%TO.P,J1,32,Pin_32*%
%TO.N,/D6*%
X125395999Y-69134999D03*
D20*
%TO.P,J1,32n,Pin_70*%
%TO.N,unconnected-(J1-Pin_70-Pad32n)*%
X125395999Y-65134999D03*
D19*
%TO.P,J1,33,Pin_33*%
%TO.N,/D3*%
X124145999Y-69134999D03*
D20*
%TO.P,J1,33n,Pin_71*%
%TO.N,unconnected-(J1-Pin_71-Pad33n)*%
X124145999Y-65134999D03*
D19*
%TO.P,J1,34,Pin_34*%
%TO.N,/D4*%
X122895999Y-69134999D03*
D20*
%TO.P,J1,34n,Pin_72*%
%TO.N,unconnected-(J1-Pin_72-Pad34n)*%
X122895999Y-65134999D03*
D19*
%TO.P,J1,35,Pin_35*%
%TO.N,/D5*%
X121645999Y-69134999D03*
D20*
%TO.P,J1,35n,Pin_73*%
%TO.N,unconnected-(J1-Pin_73-Pad35n)*%
X121645999Y-65134999D03*
D17*
%TO.P,J1,36,Pin_36*%
%TO.N,/A17*%
X120395999Y-68079999D03*
D18*
%TO.P,J1,36n,Pin_74*%
%TO.N,unconnected-(J1-Pin_74-Pad36n)*%
X120395999Y-64134999D03*
D17*
%TO.P,J1,37,Pin_37*%
%TO.N,/A18*%
X119145999Y-68079999D03*
D18*
%TO.P,J1,37n,Pin_75*%
%TO.N,unconnected-(J1-Pin_75-Pad37n)*%
X119145999Y-64134999D03*
D17*
%TO.P,J1,38,Pin_38*%
%TO.N,/A19*%
X117895999Y-68079999D03*
D18*
%TO.P,J1,38n,Pin_76*%
%TO.N,unconnected-(J1-Pin_76-Pad38n)*%
X117895999Y-64134999D03*
%TD*%
D22*
%TO.N,/~{SE1}*%
X131826000Y-107823000D03*
%TO.N,/WEL*%
X129540000Y-95853500D03*
%TO.N,/A9*%
X123174695Y-75946000D03*
%TO.N,/D4*%
X123784674Y-89503931D03*
X126749500Y-90170000D03*
%TO.N,/D3*%
X144436500Y-89281000D03*
%TO.N,/A19*%
X133947500Y-78702500D03*
%TO.N,Net-(U3-CE#)*%
X127000000Y-107061000D03*
%TO.N,GND*%
X125222000Y-97917000D03*
%TO.N,/D2*%
X123772500Y-96049500D03*
%TO.N,/D1*%
X123724500Y-100487511D03*
%TO.N,/D0*%
X147447000Y-101261500D03*
X123000000Y-101219000D03*
%TO.N,/A0*%
X122555000Y-97536000D03*
%TO.N,/A1*%
X149860000Y-100330000D03*
X122399963Y-102018350D03*
%TO.N,/A2*%
X151257000Y-104136201D03*
X121724500Y-102755066D03*
%TO.N,/A3*%
X152654000Y-104775000D03*
X120899722Y-103319642D03*
%TO.N,/A11*%
X132170000Y-86068500D03*
%TO.N,/A8*%
X133768500Y-86068500D03*
%TO.N,/ROE*%
X130302000Y-71501000D03*
%TO.N,/A11*%
X131445000Y-76182392D03*
X126073500Y-76454000D03*
%TO.N,/D7*%
X127343500Y-94712313D03*
%TO.N,/~{SE1}*%
X127127000Y-76099500D03*
X127889000Y-71501000D03*
%TO.N,/D6*%
X148336500Y-100292500D03*
X126365000Y-100711000D03*
X125476000Y-71501000D03*
%TO.N,/D3*%
X124206000Y-71501000D03*
%TO.N,/~{SE1}*%
X126492000Y-87211500D03*
X130048500Y-87503000D03*
X132080000Y-102616000D03*
%TO.N,Net-(D1-K)*%
X131318000Y-112776000D03*
X129159000Y-102832500D03*
%TO.N,/D5*%
X146341500Y-89027000D03*
%TO.N,/D6*%
X148336000Y-90118000D03*
%TO.N,/D4*%
X145885500Y-90043000D03*
X126746000Y-95631000D03*
X122936000Y-71501000D03*
%TO.N,/A17*%
X119544500Y-83185000D03*
X120396000Y-71501000D03*
%TO.N,/D7*%
X126619000Y-71501000D03*
X149061000Y-103619500D03*
X128000000Y-102743000D03*
X148881500Y-88677500D03*
%TO.N,/A10*%
X124199500Y-88523890D03*
%TO.N,Net-(U3-CE#)*%
X128038181Y-90925459D03*
X150780500Y-90297500D03*
%TO.N,/A10*%
X151421500Y-88900000D03*
%TO.N,GND*%
X129540000Y-106807000D03*
%TO.N,/ROE*%
X153320500Y-90551000D03*
%TO.N,/A11*%
X153961500Y-87625109D03*
%TO.N,/A9*%
X133620500Y-73914000D03*
X123772500Y-90551000D03*
X155231500Y-90297000D03*
%TO.N,/A8*%
X156813500Y-87824799D03*
%TO.N,/D3*%
X124785632Y-89347562D03*
X144526000Y-106553000D03*
%TO.N,/D4*%
X145796000Y-106553000D03*
%TO.N,/D6*%
X148336000Y-106426000D03*
%TO.N,/D7*%
X149606000Y-106553000D03*
%TO.N,/A10*%
X152146000Y-106680000D03*
%TO.N,/A11*%
X154686000Y-106553000D03*
%TO.N,/A9*%
X156083000Y-106680000D03*
%TO.N,/A8*%
X157226000Y-106680000D03*
%TO.N,/D5*%
X147066000Y-106553000D03*
X146177000Y-97536000D03*
X127224500Y-97744227D03*
X122555000Y-95885000D03*
X121666000Y-71501000D03*
%TO.N,/A8*%
X135382000Y-71628000D03*
X132842000Y-76581000D03*
X122659057Y-76999500D03*
%TO.N,/ROE*%
X153416000Y-106680000D03*
X153416000Y-100076000D03*
X129188232Y-100483500D03*
%TO.N,/A13*%
X128524000Y-75946000D03*
X136312500Y-86068500D03*
X136646000Y-74803000D03*
%TO.N,/WEL*%
X138261500Y-86680652D03*
X136312500Y-95853500D03*
X137896000Y-71501000D03*
%TO.N,/A13*%
X158623000Y-106680000D03*
X159004000Y-87084500D03*
%TO.N,/WEL*%
X159766000Y-106680000D03*
X159328297Y-88392000D03*
%TO.N,Net-(JP1-A)*%
X150876000Y-110363000D03*
X128270000Y-109093000D03*
%TO.N,/A14*%
X142896000Y-80338500D03*
X127775500Y-81153000D03*
%TO.N,/D2*%
X145796000Y-80682500D03*
X144526000Y-96874500D03*
%TO.N,/D1*%
X147066000Y-80645000D03*
X147074952Y-98768500D03*
%TO.N,/D0*%
X148336000Y-80645000D03*
X147790500Y-97155000D03*
%TO.N,/A0*%
X149606000Y-80682500D03*
X149863949Y-97167548D03*
%TO.N,/A1*%
X151003000Y-80645000D03*
X150421752Y-97996922D03*
%TO.N,/A2*%
X152146000Y-80682500D03*
X151511000Y-99314000D03*
%TO.N,/A3*%
X153416000Y-80645000D03*
X152691500Y-97206089D03*
%TO.N,/A6*%
X121793000Y-77528000D03*
X157226000Y-77089000D03*
%TO.N,/A5*%
X156391548Y-99005451D03*
X155956000Y-80518000D03*
X121724500Y-81661000D03*
%TO.N,/A4*%
X154781500Y-97155000D03*
X154693803Y-81413611D03*
X121031000Y-82931000D03*
%TO.N,/A6*%
X157263500Y-97379313D03*
X157226000Y-80518000D03*
%TO.N,/A7*%
X158623000Y-83666500D03*
X122500000Y-83185000D03*
X157734000Y-98298000D03*
X158496000Y-80645000D03*
%TO.N,/A15*%
X163232000Y-82550000D03*
X128307000Y-83439000D03*
%TO.N,/A12*%
X159808500Y-83216500D03*
X127463541Y-83975267D03*
X159778797Y-97028000D03*
X159766000Y-80391000D03*
%TO.N,GND*%
X129540000Y-112395000D03*
X144526000Y-80645000D03*
X140208000Y-81788000D03*
X142875000Y-95250000D03*
X133731000Y-88519000D03*
X123190000Y-103917500D03*
X145415000Y-71628000D03*
X139954000Y-97790000D03*
X144145000Y-71628000D03*
%TO.N,/A14*%
X161228297Y-96974895D03*
X142748000Y-82581500D03*
X161069141Y-81229798D03*
%TO.N,/A15*%
X163322000Y-75311000D03*
X162306000Y-106299000D03*
X162433000Y-90297000D03*
%TO.N,/A16*%
X129286000Y-83164500D03*
X162306000Y-97028000D03*
X162507500Y-80772000D03*
%TO.N,/A17*%
X130265487Y-85468748D03*
X161163000Y-86614000D03*
X161344954Y-106573585D03*
%TO.N,/A19*%
X134239000Y-106172000D03*
X118872000Y-78359000D03*
X131445000Y-78702500D03*
%TO.N,/A18*%
X130302000Y-77978000D03*
X163957000Y-80518000D03*
X163957000Y-77216000D03*
X163957000Y-96901000D03*
X118571123Y-76962000D03*
%TD*%
D23*
%TO.N,/~{SE1}*%
X135255000Y-107823000D02*
X131826000Y-107823000D01*
%TO.N,Net-(JP1-A)*%
X128300000Y-109123000D02*
X128270000Y-109093000D01*
X135255000Y-109123000D02*
X128300000Y-109123000D01*
%TO.N,/D7*%
X128000000Y-95368813D02*
X128000000Y-99131000D01*
X127343500Y-94712313D02*
X128000000Y-95368813D01*
%TO.N,/D4*%
X126500000Y-95877000D02*
X126500000Y-99131000D01*
X126746000Y-95631000D02*
X126500000Y-95877000D01*
%TO.N,/WEL*%
X129500000Y-95893500D02*
X129500000Y-99131000D01*
X129540000Y-95853500D02*
X129500000Y-95893500D01*
%TO.N,/D5*%
X126975000Y-97993727D02*
X126975000Y-99441000D01*
X127224500Y-97744227D02*
X126975000Y-97993727D01*
%TO.N,/D1*%
X147066000Y-98759548D02*
X147066000Y-95250000D01*
X147074952Y-98768500D02*
X147066000Y-98759548D01*
%TO.N,/A13*%
X127500000Y-76970000D02*
X127500000Y-79756000D01*
X128524000Y-75946000D02*
X127500000Y-76970000D01*
%TO.N,/~{SE1}*%
X126500000Y-77052805D02*
X126500000Y-79756000D01*
X127127000Y-76425805D02*
X126500000Y-77052805D01*
X127127000Y-76099500D02*
X127127000Y-76425805D01*
%TO.N,/A9*%
X123475000Y-79781000D02*
X123500000Y-79756000D01*
X123475000Y-88361000D02*
X123475000Y-79781000D01*
X123063000Y-88773000D02*
X123475000Y-88361000D01*
X123063000Y-89200300D02*
X123063000Y-88773000D01*
X123059674Y-89203626D02*
X123063000Y-89200300D01*
X123772500Y-90551000D02*
X123059674Y-89838174D01*
X123059674Y-89838174D02*
X123059674Y-89203626D01*
%TO.N,Net-(D1-K)*%
X139186000Y-112776000D02*
X139313000Y-112649000D01*
X131318000Y-112776000D02*
X139186000Y-112776000D01*
D24*
%TO.N,GND*%
X123190000Y-103917500D02*
X123190000Y-105537000D01*
D23*
%TO.N,/A3*%
X121000000Y-103219364D02*
X121000000Y-99131000D01*
X120899722Y-103319642D02*
X121000000Y-103219364D01*
%TO.N,/D7*%
X128000000Y-102743000D02*
X128000000Y-99131000D01*
%TO.N,Net-(D1-K)*%
X128463232Y-100183195D02*
X128500000Y-100146427D01*
X129159000Y-102832500D02*
X128463232Y-102136732D01*
X128463232Y-102136732D02*
X128463232Y-100183195D01*
X128500000Y-100146427D02*
X128500000Y-99131000D01*
%TO.N,/A2*%
X121500000Y-102530566D02*
X121500000Y-99131000D01*
X121724500Y-102755066D02*
X121500000Y-102530566D01*
D24*
%TO.N,GND*%
X129540000Y-106807000D02*
X129540000Y-105537000D01*
D23*
%TO.N,/A9*%
X123500000Y-76815138D02*
X123500000Y-79756000D01*
X123174695Y-76489833D02*
X123500000Y-76815138D01*
X123174695Y-75946000D02*
X123174695Y-76489833D01*
%TO.N,/A13*%
X136646000Y-74803000D02*
X136646000Y-68008000D01*
%TO.N,/WEL*%
X137896000Y-71501000D02*
X137896000Y-68008000D01*
%TO.N,/A8*%
X135396000Y-71614000D02*
X135396000Y-68008000D01*
X135382000Y-71628000D02*
X135396000Y-71614000D01*
%TO.N,/ROE*%
X130396000Y-71407000D02*
X130396000Y-68008000D01*
X130302000Y-71501000D02*
X130396000Y-71407000D01*
%TO.N,/~{SE1}*%
X127896000Y-71494000D02*
X127896000Y-68008000D01*
X127889000Y-71501000D02*
X127896000Y-71494000D01*
%TO.N,/D7*%
X126646000Y-71474000D02*
X126646000Y-69008000D01*
X126619000Y-71501000D02*
X126646000Y-71474000D01*
%TO.N,/A10*%
X129146000Y-71768000D02*
X129146000Y-68008000D01*
X125349000Y-76706604D02*
X125349000Y-75565000D01*
X124000000Y-78055604D02*
X125349000Y-76706604D01*
X125349000Y-75565000D02*
X129146000Y-71768000D01*
X124000000Y-79756000D02*
X124000000Y-78055604D01*
%TO.N,/A18*%
X118580500Y-76952623D02*
X118580500Y-71329250D01*
X119146000Y-70763750D02*
X119146000Y-67953000D01*
X118571123Y-76962000D02*
X118580500Y-76952623D01*
X118580500Y-71329250D02*
X119146000Y-70763750D01*
%TO.N,/A19*%
X117856000Y-68120000D02*
X117896000Y-68080000D01*
X117856000Y-76016818D02*
X117856000Y-68120000D01*
X117846123Y-76026695D02*
X117856000Y-76016818D01*
X117846123Y-77333123D02*
X117846123Y-76026695D01*
X118872000Y-78359000D02*
X117846123Y-77333123D01*
%TO.N,/A8*%
X123000000Y-77340443D02*
X123000000Y-79756000D01*
X122659057Y-76999500D02*
X123000000Y-77340443D01*
%TO.N,/A6*%
X122000000Y-78892500D02*
X122000000Y-79756000D01*
X121793000Y-78685500D02*
X122000000Y-78892500D01*
X121793000Y-77528000D02*
X121793000Y-78685500D01*
%TO.N,/A9*%
X134146000Y-73388500D02*
X134146000Y-68008000D01*
X133620500Y-73914000D02*
X134146000Y-73388500D01*
%TO.N,/A11*%
X132896000Y-74731392D02*
X132896000Y-68008000D01*
X131445000Y-76182392D02*
X132896000Y-74731392D01*
X125799000Y-76728500D02*
X125799000Y-76893000D01*
X126073500Y-76454000D02*
X125799000Y-76728500D01*
X124500000Y-78192000D02*
X124500000Y-79756000D01*
X125799000Y-76893000D02*
X124500000Y-78192000D01*
%TO.N,/ROE*%
X129000000Y-100295268D02*
X129000000Y-99131000D01*
X129188232Y-100483500D02*
X129000000Y-100295268D01*
%TO.N,/D3*%
X124497000Y-89636194D02*
X124497000Y-99128000D01*
X124785632Y-89347562D02*
X124497000Y-89636194D01*
X124497000Y-99128000D02*
X124500000Y-99131000D01*
%TO.N,/A17*%
X129500000Y-80868305D02*
X129500000Y-79756000D01*
X130175000Y-81543305D02*
X129500000Y-80868305D01*
X130175000Y-85378261D02*
X130175000Y-81543305D01*
X130265487Y-85468748D02*
X130175000Y-85378261D01*
%TO.N,/A7*%
X122500000Y-83185000D02*
X122500000Y-79756000D01*
%TO.N,/A10*%
X124000000Y-88324390D02*
X124000000Y-79756000D01*
X124199500Y-88523890D02*
X124000000Y-88324390D01*
D25*
%TO.N,VCC*%
X138176000Y-85217000D02*
X137287000Y-85217000D01*
X140208000Y-86135000D02*
X139094000Y-86135000D01*
X139094000Y-86135000D02*
X138176000Y-85217000D01*
D23*
%TO.N,/D3*%
X144526000Y-89281000D02*
X144436500Y-89281000D01*
X144526000Y-89281000D02*
X144526000Y-92094000D01*
%TO.N,/A12*%
X127000000Y-83511726D02*
X127000000Y-79756000D01*
X127463541Y-83975267D02*
X127000000Y-83511726D01*
%TO.N,/A19*%
X130810000Y-105813751D02*
X130810000Y-105537000D01*
X134239000Y-106172000D02*
X133674000Y-106737000D01*
X133674000Y-106737000D02*
X131733249Y-106737000D01*
X131733249Y-106737000D02*
X130810000Y-105813751D01*
%TO.N,/A3*%
X153416000Y-96481589D02*
X153416000Y-95250000D01*
X152691500Y-97206089D02*
X153416000Y-96481589D01*
%TO.N,/A2*%
X151511000Y-99314000D02*
X151966500Y-98858500D01*
X151966500Y-98858500D02*
X151966500Y-95429500D01*
X151966500Y-95429500D02*
X152146000Y-95250000D01*
%TO.N,/A1*%
X122000000Y-101618387D02*
X122000000Y-99131000D01*
X122399963Y-102018350D02*
X122000000Y-101618387D01*
%TO.N,/D0*%
X123000000Y-101219000D02*
X123000000Y-99131000D01*
%TO.N,/D6*%
X127240685Y-100243500D02*
X127500000Y-99984185D01*
X126832500Y-100243500D02*
X127240685Y-100243500D01*
X126365000Y-100711000D02*
X126832500Y-100243500D01*
X127500000Y-99984185D02*
X127500000Y-99131000D01*
%TO.N,/D1*%
X123724500Y-100487511D02*
X123500000Y-100263011D01*
X123500000Y-100263011D02*
X123500000Y-99131000D01*
%TO.N,Net-(U3-CE#)*%
X127000000Y-105537000D02*
X127000000Y-107061000D01*
%TO.N,Net-(JP1-A)*%
X128270000Y-105537000D02*
X128270000Y-109093000D01*
%TO.N,/~{SE1}*%
X132080000Y-102616000D02*
X132080000Y-105537000D01*
%TO.N,GND*%
X125222000Y-98909000D02*
X125222000Y-97917000D01*
X125222000Y-98909000D02*
X125000000Y-99131000D01*
%TO.N,/D0*%
X148336000Y-78994000D02*
X148336000Y-80645000D01*
%TO.N,VCC*%
X125456185Y-81153000D02*
X125127000Y-81153000D01*
X126000000Y-80609185D02*
X125456185Y-81153000D01*
X126000000Y-79756000D02*
X126000000Y-80609185D01*
D26*
X125000000Y-81280000D02*
X125000000Y-87789000D01*
D23*
X125127000Y-81153000D02*
X125000000Y-81280000D01*
D26*
X125000000Y-79756000D02*
X125000000Y-81280000D01*
D23*
%TO.N,GND*%
X145415000Y-70993000D02*
X145415000Y-71628000D01*
X145396000Y-70974000D02*
X145415000Y-70993000D01*
X144145000Y-70993000D02*
X144145000Y-71628000D01*
X144146000Y-70992000D02*
X144145000Y-70993000D01*
%TO.N,/A14*%
X161036000Y-78994000D02*
X161036000Y-81196657D01*
%TO.N,/D2*%
X124000000Y-96277000D02*
X123772500Y-96049500D01*
X124000000Y-99131000D02*
X124000000Y-96277000D01*
%TO.N,/A0*%
X122500000Y-97591000D02*
X122555000Y-97536000D01*
X122500000Y-99131000D02*
X122500000Y-97591000D01*
%TO.N,/D2*%
X145796000Y-95676751D02*
X145796000Y-95250000D01*
X144872751Y-96600000D02*
X145796000Y-95676751D01*
X144800500Y-96600000D02*
X144872751Y-96600000D01*
X144526000Y-96874500D02*
X144800500Y-96600000D01*
D24*
%TO.N,GND*%
X144526000Y-95250000D02*
X142875000Y-95250000D01*
D26*
%TO.N,VCC*%
X126000000Y-97634339D02*
X126000000Y-99131000D01*
X125730000Y-97364339D02*
X126000000Y-97634339D01*
X125730000Y-93107000D02*
X125730000Y-97364339D01*
X126000000Y-92837000D02*
X125730000Y-93107000D01*
D23*
%TO.N,/ROE*%
X153228697Y-90642803D02*
X153228697Y-91906697D01*
X153228697Y-91906697D02*
X153416000Y-92094000D01*
X153320500Y-90551000D02*
X153228697Y-90642803D01*
%TO.N,/A11*%
X154506500Y-88170109D02*
X154506500Y-91914500D01*
X154506500Y-91914500D02*
X154686000Y-92094000D01*
X153961500Y-87625109D02*
X154506500Y-88170109D01*
%TO.N,/A8*%
X156813500Y-87824799D02*
X157226000Y-88237299D01*
X157226000Y-88237299D02*
X157226000Y-92094000D01*
D25*
%TO.N,VCC*%
X163576000Y-85725000D02*
X163576000Y-92094000D01*
X141634000Y-84709000D02*
X162560000Y-84709000D01*
X162560000Y-84709000D02*
X163576000Y-85725000D01*
X140208000Y-86135000D02*
X141634000Y-84709000D01*
D23*
%TO.N,/WEL*%
X159328297Y-88392000D02*
X159766000Y-88829703D01*
X159766000Y-88829703D02*
X159766000Y-92094000D01*
%TO.N,/A13*%
X158496000Y-87592500D02*
X158496000Y-92094000D01*
X159004000Y-87084500D02*
X158496000Y-87592500D01*
%TO.N,/A17*%
X161036000Y-86741000D02*
X161036000Y-92094000D01*
X161163000Y-86614000D02*
X161036000Y-86741000D01*
%TO.N,/A15*%
X128307000Y-83439000D02*
X128307000Y-81741695D01*
X128307000Y-81741695D02*
X128500000Y-81548695D01*
X128500000Y-81548695D02*
X128500000Y-79756000D01*
%TO.N,/A14*%
X142896000Y-82433500D02*
X142896000Y-68008000D01*
X142748000Y-82581500D02*
X142896000Y-82433500D01*
%TO.N,/A4*%
X154686000Y-81405808D02*
X154686000Y-78994000D01*
X154693803Y-81413611D02*
X154686000Y-81405808D01*
%TO.N,/A12*%
X159766000Y-80391000D02*
X159766000Y-78994000D01*
%TO.N,/A7*%
X158496000Y-80645000D02*
X158496000Y-78994000D01*
%TO.N,/A6*%
X157226000Y-78994000D02*
X157226000Y-80518000D01*
%TO.N,/A5*%
X155956000Y-80518000D02*
X155956000Y-78994000D01*
%TO.N,/D6*%
X125396000Y-71421000D02*
X125476000Y-71501000D01*
X125396000Y-69008000D02*
X125396000Y-71421000D01*
%TO.N,/D3*%
X124146000Y-71441000D02*
X124206000Y-71501000D01*
X124146000Y-69008000D02*
X124146000Y-71441000D01*
D26*
%TO.N,VCC*%
X126000000Y-88789000D02*
X126000000Y-92837000D01*
X125000000Y-87789000D02*
X126000000Y-88789000D01*
D23*
%TO.N,/D5*%
X146939000Y-91948000D02*
X146939000Y-89624500D01*
X146939000Y-89624500D02*
X146341500Y-89027000D01*
X147066000Y-92075000D02*
X146939000Y-91948000D01*
X147066000Y-92094000D02*
X147066000Y-92075000D01*
%TO.N,/D4*%
X145796000Y-90132500D02*
X145796000Y-92094000D01*
X145885500Y-90043000D02*
X145796000Y-90132500D01*
%TO.N,/A1*%
X150876000Y-97542674D02*
X150421752Y-97996922D01*
X150876000Y-95250000D02*
X150876000Y-97542674D01*
%TO.N,/D0*%
X148336000Y-96609500D02*
X147790500Y-97155000D01*
X148336000Y-95250000D02*
X148336000Y-96609500D01*
%TO.N,/D6*%
X148336000Y-92094000D02*
X148336000Y-90118000D01*
%TO.N,/D4*%
X122896000Y-71461000D02*
X122936000Y-71501000D01*
X122896000Y-69008000D02*
X122896000Y-71461000D01*
%TO.N,/A17*%
X120396000Y-67953000D02*
X120396000Y-71501000D01*
%TO.N,/A0*%
X149606000Y-95250000D02*
X149606000Y-96909599D01*
X149606000Y-96909599D02*
X149863949Y-97167548D01*
%TO.N,/D7*%
X149606000Y-89402000D02*
X148881500Y-88677500D01*
X149606000Y-92094000D02*
X149606000Y-89402000D01*
%TO.N,Net-(U3-CE#)*%
X150876000Y-90393000D02*
X150780500Y-90297500D01*
X150876000Y-92094000D02*
X150876000Y-90393000D01*
%TO.N,/A10*%
X152146000Y-89624500D02*
X151421500Y-88900000D01*
X152146000Y-92094000D02*
X152146000Y-89624500D01*
%TO.N,/A4*%
X154686000Y-97059500D02*
X154686000Y-95250000D01*
X154781500Y-97155000D02*
X154686000Y-97059500D01*
%TO.N,/A9*%
X155956000Y-91021500D02*
X155231500Y-90297000D01*
X155956000Y-92094000D02*
X155956000Y-91021500D01*
%TO.N,/A5*%
X155956000Y-98569903D02*
X155956000Y-95250000D01*
X156391548Y-99005451D02*
X155956000Y-98569903D01*
%TO.N,/A6*%
X157226000Y-97341813D02*
X157226000Y-95250000D01*
X157263500Y-97379313D02*
X157226000Y-97341813D01*
%TO.N,/D3*%
X144526000Y-108350000D02*
X144526000Y-106553000D01*
%TO.N,/D4*%
X145796000Y-108350000D02*
X145796000Y-106553000D01*
%TO.N,/D6*%
X148336000Y-108350000D02*
X148336000Y-106426000D01*
%TO.N,/D7*%
X149606000Y-108350000D02*
X149606000Y-106553000D01*
%TO.N,/A10*%
X152146000Y-108350000D02*
X152146000Y-106680000D01*
%TO.N,/A11*%
X154686000Y-108350000D02*
X154686000Y-106553000D01*
%TO.N,/A9*%
X155956000Y-106807000D02*
X156083000Y-106680000D01*
X155956000Y-108350000D02*
X155956000Y-106807000D01*
%TO.N,/A8*%
X157226000Y-108350000D02*
X157226000Y-106680000D01*
%TO.N,/D5*%
X147066000Y-106553000D02*
X147066000Y-108350000D01*
X121646000Y-71481000D02*
X121666000Y-71501000D01*
X121646000Y-69008000D02*
X121646000Y-71481000D01*
%TO.N,/ROE*%
X153416000Y-106680000D02*
X153416000Y-108350000D01*
%TO.N,/A13*%
X158623000Y-108223000D02*
X158496000Y-108350000D01*
X158623000Y-106680000D02*
X158623000Y-108223000D01*
%TO.N,/A7*%
X158496000Y-97536000D02*
X158496000Y-95250000D01*
X157734000Y-98298000D02*
X158496000Y-97536000D01*
%TO.N,/WEL*%
X159766000Y-106680000D02*
X159766000Y-108350000D01*
%TO.N,Net-(D1-A)*%
X140335000Y-108077000D02*
X142113000Y-109855000D01*
X140176000Y-108236000D02*
X140335000Y-108077000D01*
X140176000Y-108474000D02*
X140176000Y-108236000D01*
X142113000Y-109855000D02*
X142113000Y-112649000D01*
%TO.N,Net-(JP1-A)*%
X150876000Y-110363000D02*
X150876000Y-108350000D01*
%TO.N,/A19*%
X130500000Y-79647500D02*
X130500000Y-79756000D01*
X131445000Y-78702500D02*
X130500000Y-79647500D01*
%TO.N,/A14*%
X128000000Y-80928500D02*
X127775500Y-81153000D01*
X128000000Y-79756000D02*
X128000000Y-80928500D01*
%TO.N,/D2*%
X145796000Y-80682500D02*
X145796000Y-78994000D01*
%TO.N,/D1*%
X147066000Y-80645000D02*
X147066000Y-78994000D01*
%TO.N,/A0*%
X149606000Y-80682500D02*
X149606000Y-78994000D01*
%TO.N,/A1*%
X151003000Y-80645000D02*
X151003000Y-79121000D01*
X151003000Y-79121000D02*
X150876000Y-78994000D01*
%TO.N,/A2*%
X152146000Y-80682500D02*
X152146000Y-78994000D01*
%TO.N,/A3*%
X153416000Y-80645000D02*
X153416000Y-78994000D01*
%TO.N,/A6*%
X157226000Y-78994000D02*
X157226000Y-77089000D01*
X157226000Y-77089000D02*
X157226000Y-75692000D01*
%TO.N,/A5*%
X121500000Y-81436500D02*
X121724500Y-81661000D01*
X121500000Y-79756000D02*
X121500000Y-81436500D01*
%TO.N,/A4*%
X121000000Y-82900000D02*
X121000000Y-79756000D01*
X121031000Y-82931000D02*
X121000000Y-82900000D01*
%TO.N,/A16*%
X129000000Y-82878500D02*
X129000000Y-79756000D01*
X129286000Y-83164500D02*
X129000000Y-82878500D01*
%TO.N,/A12*%
X159778797Y-95262797D02*
X159766000Y-95250000D01*
X159778797Y-97028000D02*
X159778797Y-95262797D01*
%TO.N,/D2*%
X145796000Y-75057000D02*
X147896000Y-72957000D01*
X147896000Y-72957000D02*
X147896000Y-69008000D01*
X145796000Y-78994000D02*
X145796000Y-75057000D01*
%TO.N,/D1*%
X146669623Y-75580377D02*
X149146000Y-73104000D01*
X146669623Y-78597623D02*
X146669623Y-75580377D01*
X147066000Y-78994000D02*
X146669623Y-78597623D01*
X149146000Y-73104000D02*
X149146000Y-69008000D01*
%TO.N,/A0*%
X151646000Y-73906000D02*
X151646000Y-68008000D01*
X149606000Y-78994000D02*
X149606000Y-75946000D01*
X149606000Y-75946000D02*
X151646000Y-73906000D01*
%TO.N,/D0*%
X149156000Y-74999000D02*
X150396000Y-73759000D01*
X148336000Y-77343000D02*
X149156000Y-76523000D01*
X150396000Y-73759000D02*
X150396000Y-69008000D01*
X148336000Y-78994000D02*
X148336000Y-77343000D01*
X149156000Y-76523000D02*
X149156000Y-74999000D01*
%TO.N,/A1*%
X150876000Y-75692000D02*
X152896000Y-73672000D01*
X152896000Y-73672000D02*
X152896000Y-68008000D01*
X150876000Y-78994000D02*
X150876000Y-75692000D01*
%TO.N,/A2*%
X154146000Y-73819000D02*
X154146000Y-68008000D01*
X152146000Y-75819000D02*
X154146000Y-73819000D01*
X152146000Y-78994000D02*
X152146000Y-75819000D01*
%TO.N,/A3*%
X153416000Y-75692000D02*
X155396000Y-73712000D01*
X155396000Y-73712000D02*
X155396000Y-68008000D01*
X153416000Y-78994000D02*
X153416000Y-75692000D01*
%TO.N,/A4*%
X156646000Y-73732000D02*
X156646000Y-68008000D01*
X154686000Y-75692000D02*
X156646000Y-73732000D01*
X154686000Y-78994000D02*
X154686000Y-75692000D01*
%TO.N,/A5*%
X155956000Y-75565000D02*
X157896000Y-73625000D01*
X155956000Y-78994000D02*
X155956000Y-75565000D01*
X157896000Y-73625000D02*
X157896000Y-68008000D01*
%TO.N,/A6*%
X159146000Y-73772000D02*
X159146000Y-68008000D01*
X157226000Y-75692000D02*
X159146000Y-73772000D01*
%TO.N,/A7*%
X160396000Y-73792000D02*
X160396000Y-68008000D01*
X158496000Y-75692000D02*
X160396000Y-73792000D01*
X158496000Y-78994000D02*
X158496000Y-75692000D01*
%TO.N,/A12*%
X159766000Y-75692000D02*
X159766000Y-78994000D01*
X161646000Y-73812000D02*
X159766000Y-75692000D01*
X161646000Y-68008000D02*
X161646000Y-73812000D01*
%TO.N,GND*%
X128270000Y-110687000D02*
X128270000Y-111125000D01*
X130810000Y-110687000D02*
X130810000Y-111125000D01*
D24*
X144526000Y-78994000D02*
X144526000Y-80645000D01*
D25*
X133731000Y-89789000D02*
X133731000Y-88519000D01*
X139954000Y-99695000D02*
X139954000Y-97790000D01*
D24*
X129540000Y-110687000D02*
X129540000Y-112395000D01*
D23*
X125222000Y-98853000D02*
X125500000Y-99131000D01*
D25*
X144146000Y-66758000D02*
X144146000Y-70992000D01*
X145396000Y-66758000D02*
X145396000Y-70974000D01*
D24*
X130810000Y-111125000D02*
X129540000Y-112395000D01*
X128270000Y-111125000D02*
X129540000Y-112395000D01*
D25*
X140208000Y-83185000D02*
X140208000Y-81788000D01*
%TO.N,VCC*%
X141646000Y-70444000D02*
X141646000Y-68508000D01*
D24*
X126000000Y-92837000D02*
X133633000Y-92837000D01*
D25*
X160430000Y-102645000D02*
X163576000Y-105791000D01*
X139146000Y-70439000D02*
X139146000Y-68508000D01*
X140396000Y-74361000D02*
X137287000Y-77470000D01*
X137287000Y-77470000D02*
X137287000Y-85217000D01*
D24*
X135963000Y-110687000D02*
X138176000Y-108474000D01*
D25*
X140396000Y-71882000D02*
X140396000Y-71694000D01*
X138078000Y-102645000D02*
X160430000Y-102645000D01*
D23*
X133633000Y-92837000D02*
X133731000Y-92739000D01*
D25*
X137287000Y-103505000D02*
X137287000Y-107585000D01*
X140396000Y-71882000D02*
X140396000Y-71689000D01*
X136242000Y-92739000D02*
X137287000Y-91694000D01*
X137287000Y-85217000D02*
X137287000Y-91694000D01*
X140396000Y-71882000D02*
X140396000Y-74361000D01*
X137287000Y-91694000D02*
X137287000Y-103505000D01*
X140396000Y-68508000D02*
X140396000Y-71882000D01*
X137287000Y-101854000D02*
X138078000Y-102645000D01*
X133731000Y-92739000D02*
X136242000Y-92739000D01*
X137287000Y-107585000D02*
X138176000Y-108474000D01*
D24*
X132080000Y-110687000D02*
X135963000Y-110687000D01*
D25*
X140396000Y-71694000D02*
X141646000Y-70444000D01*
X140396000Y-71689000D02*
X139146000Y-70439000D01*
X163576000Y-105791000D02*
X163576000Y-108350000D01*
D23*
%TO.N,/A14*%
X161228297Y-95442297D02*
X161036000Y-95250000D01*
X161036000Y-81196657D02*
X161069141Y-81229798D01*
X161228297Y-96974895D02*
X161228297Y-95442297D01*
%TO.N,/A15*%
X162896000Y-68008000D02*
X162896000Y-74885000D01*
X162306000Y-90424000D02*
X162306000Y-92094000D01*
X162896000Y-74885000D02*
X163322000Y-75311000D01*
X162433000Y-90297000D02*
X162306000Y-90424000D01*
X162306000Y-106299000D02*
X162306000Y-108350000D01*
%TO.N,/A16*%
X162306000Y-77597000D02*
X162306000Y-78994000D01*
X162306000Y-97028000D02*
X162306000Y-95250000D01*
X162306000Y-78994000D02*
X162306000Y-80570500D01*
X162306000Y-80570500D02*
X162507500Y-80772000D01*
X164146000Y-75757000D02*
X162306000Y-77597000D01*
X164146000Y-68008000D02*
X164146000Y-75757000D01*
%TO.N,/A17*%
X161344954Y-108041046D02*
X161036000Y-108350000D01*
X161344954Y-106573585D02*
X161344954Y-108041046D01*
%TO.N,/A18*%
X163957000Y-77216000D02*
X163957000Y-78613000D01*
X130302000Y-77978000D02*
X130000000Y-78280000D01*
X163957000Y-78613000D02*
X163576000Y-78994000D01*
X163576000Y-80137000D02*
X163957000Y-80518000D01*
X163576000Y-78994000D02*
X163576000Y-80137000D01*
X163957000Y-95631000D02*
X163576000Y-95250000D01*
X163957000Y-96901000D02*
X163957000Y-95631000D01*
X130000000Y-78280000D02*
X130000000Y-79756000D01*
%TD*%
%TA.AperFunction,Conductor*%
%TO.N,VCC*%
G36*
X141924000Y-66564613D02*
G01*
X141969387Y-66610000D01*
X141986000Y-66672000D01*
X141986000Y-70361000D01*
X141969387Y-70423000D01*
X141924000Y-70468387D01*
X141862000Y-70485000D01*
X138935000Y-70485000D01*
X138873000Y-70468387D01*
X138827613Y-70423000D01*
X138811000Y-70361000D01*
X138811000Y-66672000D01*
X138827613Y-66610000D01*
X138873000Y-66564613D01*
X138935000Y-66548000D01*
X141862000Y-66548000D01*
X141924000Y-66564613D01*
G37*
%TD.AperFunction*%
%TD*%
%TA.AperFunction,Conductor*%
%TO.N,GND*%
G36*
X146877000Y-63034113D02*
G01*
X146922387Y-63079500D01*
X146939000Y-63141500D01*
X146939000Y-67821000D01*
X146922387Y-67883000D01*
X146877000Y-67928387D01*
X146815000Y-67945000D01*
X145796000Y-67945000D01*
X145796000Y-67961326D01*
X145796000Y-70361000D01*
X145779387Y-70423000D01*
X145734000Y-70468387D01*
X145672000Y-70485000D01*
X143888000Y-70485000D01*
X143826000Y-70468387D01*
X143780613Y-70423000D01*
X143764000Y-70361000D01*
X143764000Y-63141500D01*
X143780613Y-63079500D01*
X143826000Y-63034113D01*
X143888000Y-63017500D01*
X146815000Y-63017500D01*
X146877000Y-63034113D01*
G37*
%TD.AperFunction*%
%TD*%
M02*
