%TF.GenerationSoftware,KiCad,Pcbnew,(7.0.0)*%
%TF.CreationDate,2023-03-25T14:20:40+00:00*%
%TF.ProjectId,connector,636f6e6e-6563-4746-9f72-2e6b69636164,rev?*%
%TF.SameCoordinates,Original*%
%TF.FileFunction,Paste,Top*%
%TF.FilePolarity,Positive*%
%FSLAX46Y46*%
G04 Gerber Fmt 4.6, Leading zero omitted, Abs format (unit mm)*
G04 Created by KiCad (PCBNEW (7.0.0)) date 2023-03-25 14:20:40*
%MOMM*%
%LPD*%
G01*
G04 APERTURE LIST*
G04 Aperture macros list*
%AMRoundRect*
0 Rectangle with rounded corners*
0 $1 Rounding radius*
0 $2 $3 $4 $5 $6 $7 $8 $9 X,Y pos of 4 corners*
0 Add a 4 corners polygon primitive as box body*
4,1,4,$2,$3,$4,$5,$6,$7,$8,$9,$2,$3,0*
0 Add four circle primitives for the rounded corners*
1,1,$1+$1,$2,$3*
1,1,$1+$1,$4,$5*
1,1,$1+$1,$6,$7*
1,1,$1+$1,$8,$9*
0 Add four rect primitives between the rounded corners*
20,1,$1+$1,$2,$3,$4,$5,0*
20,1,$1+$1,$4,$5,$6,$7,0*
20,1,$1+$1,$6,$7,$8,$9,0*
20,1,$1+$1,$8,$9,$2,$3,0*%
G04 Aperture macros list end*
%ADD10RoundRect,0.150000X-0.150000X0.875000X-0.150000X-0.875000X0.150000X-0.875000X0.150000X0.875000X0*%
%ADD11RoundRect,0.250000X0.650000X-0.325000X0.650000X0.325000X-0.650000X0.325000X-0.650000X-0.325000X0*%
%ADD12RoundRect,0.150000X-0.150000X0.725000X-0.150000X-0.725000X0.150000X-0.725000X0.150000X0.725000X0*%
%ADD13RoundRect,0.075000X-0.075000X0.712500X-0.075000X-0.712500X0.075000X-0.712500X0.075000X0.712500X0*%
%ADD14RoundRect,0.250000X-0.375000X-0.625000X0.375000X-0.625000X0.375000X0.625000X-0.375000X0.625000X0*%
%ADD15RoundRect,0.250000X-0.350000X-0.450000X0.350000X-0.450000X0.350000X0.450000X-0.350000X0.450000X0*%
G04 APERTURE END LIST*
D10*
%TO.C,U3*%
X163576000Y-78994000D03*
X162306000Y-78994000D03*
X161036000Y-78994000D03*
X159766000Y-78994000D03*
X158496000Y-78994000D03*
X157226000Y-78994000D03*
X155956000Y-78994000D03*
X154686000Y-78994000D03*
X153416000Y-78994000D03*
X152146000Y-78994000D03*
X150876000Y-78994000D03*
X149606000Y-78994000D03*
X148336000Y-78994000D03*
X147066000Y-78994000D03*
X145796000Y-78994000D03*
X144526000Y-78994000D03*
X144526000Y-92094000D03*
X145796000Y-92094000D03*
X147066000Y-92094000D03*
X148336000Y-92094000D03*
X149606000Y-92094000D03*
X150876000Y-92094000D03*
X152146000Y-92094000D03*
X153416000Y-92094000D03*
X154686000Y-92094000D03*
X155956000Y-92094000D03*
X157226000Y-92094000D03*
X158496000Y-92094000D03*
X159766000Y-92094000D03*
X161036000Y-92094000D03*
X162306000Y-92094000D03*
X163576000Y-92094000D03*
%TD*%
D11*
%TO.C,C2*%
X139954000Y-102645000D03*
X139954000Y-99695000D03*
%TD*%
%TO.C,C3*%
X140208000Y-86135000D03*
X140208000Y-83185000D03*
%TD*%
D10*
%TO.C,U2*%
X163576000Y-95250000D03*
X162306000Y-95250000D03*
X161036000Y-95250000D03*
X159766000Y-95250000D03*
X158496000Y-95250000D03*
X157226000Y-95250000D03*
X155956000Y-95250000D03*
X154686000Y-95250000D03*
X153416000Y-95250000D03*
X152146000Y-95250000D03*
X150876000Y-95250000D03*
X149606000Y-95250000D03*
X148336000Y-95250000D03*
X147066000Y-95250000D03*
X145796000Y-95250000D03*
X144526000Y-95250000D03*
X144526000Y-108350000D03*
X145796000Y-108350000D03*
X147066000Y-108350000D03*
X148336000Y-108350000D03*
X149606000Y-108350000D03*
X150876000Y-108350000D03*
X152146000Y-108350000D03*
X153416000Y-108350000D03*
X154686000Y-108350000D03*
X155956000Y-108350000D03*
X157226000Y-108350000D03*
X158496000Y-108350000D03*
X159766000Y-108350000D03*
X161036000Y-108350000D03*
X162306000Y-108350000D03*
X163576000Y-108350000D03*
%TD*%
D12*
%TO.C,U4*%
X132080000Y-105537000D03*
X130810000Y-105537000D03*
X129540000Y-105537000D03*
X128270000Y-105537000D03*
X127000000Y-105537000D03*
X125730000Y-105537000D03*
X124460000Y-105537000D03*
X123190000Y-105537000D03*
X123190000Y-110687000D03*
X124460000Y-110687000D03*
X125730000Y-110687000D03*
X127000000Y-110687000D03*
X128270000Y-110687000D03*
X129540000Y-110687000D03*
X130810000Y-110687000D03*
X132080000Y-110687000D03*
%TD*%
D13*
%TO.C,U1*%
X130500000Y-79756000D03*
X130000000Y-79756000D03*
X129500000Y-79756000D03*
X129000000Y-79756000D03*
X128500000Y-79756000D03*
X128000000Y-79756000D03*
X127500000Y-79756000D03*
X127000000Y-79756000D03*
X126500000Y-79756000D03*
X126000000Y-79756000D03*
X125500000Y-79756000D03*
X125000000Y-79756000D03*
X124500000Y-79756000D03*
X124000000Y-79756000D03*
X123500000Y-79756000D03*
X123000000Y-79756000D03*
X122500000Y-79756000D03*
X122000000Y-79756000D03*
X121500000Y-79756000D03*
X121000000Y-79756000D03*
X121000000Y-99131000D03*
X121500000Y-99131000D03*
X122000000Y-99131000D03*
X122500000Y-99131000D03*
X123000000Y-99131000D03*
X123500000Y-99131000D03*
X124000000Y-99131000D03*
X124500000Y-99131000D03*
X125000000Y-99131000D03*
X125500000Y-99131000D03*
X126000000Y-99131000D03*
X126500000Y-99131000D03*
X127000000Y-99131000D03*
X127500000Y-99131000D03*
X128000000Y-99131000D03*
X128500000Y-99131000D03*
X129000000Y-99131000D03*
X129500000Y-99131000D03*
X130000000Y-99131000D03*
X130500000Y-99131000D03*
%TD*%
D14*
%TO.C,D1*%
X139313000Y-112649000D03*
X142113000Y-112649000D03*
%TD*%
D15*
%TO.C,R1*%
X138176000Y-108474000D03*
X140176000Y-108474000D03*
%TD*%
D11*
%TO.C,C1*%
X133731000Y-92739000D03*
X133731000Y-89789000D03*
%TD*%
M02*
