M48
; DRILL file {KiCad (7.0.0)} date Sun Mar  5 21:21:57 2023
; FORMAT={-:-/ absolute / inch / decimal}
; #@! TF.CreationDate,2023-03-05T21:21:57+00:00
; #@! TF.GenerationSoftware,Kicad,Pcbnew,(7.0.0)
; #@! TF.FileFunction,Plated,1,2,PTH
FMAT,2
INCH
; #@! TA.AperFunction,Plated,PTH,ViaDrill
T1C0.0157
%
G90
G05
T1
X4.83Y-2.865
X4.83Y-2.965
X4.8715Y-3.02
X4.875Y-2.865
X5.025Y-2.865
X5.0686Y-3.2752
X5.0687Y-3.32
X5.075Y-2.865
X5.225Y-2.865
X5.2548Y-3.6552
X5.2702Y-3.1965
X5.275Y-2.865
X5.2789Y-3.4998
X5.3094Y-3.4397
X5.325Y-2.865
X5.3352Y-3.41
X5.3664Y-3.6173
X5.375Y-2.86
X5.41Y-3.02
X5.48Y-3.035
X5.4936Y-3.78
X5.565Y-3.045
X5.5987Y-3.825
X5.6037Y-4.095
X5.6225Y-3.055
X5.625Y-2.86
X5.7025Y-2.8525
X5.875Y-3.825
X5.9087Y-3.485
T0
M30
