%TF.GenerationSoftware,KiCad,Pcbnew,(7.0.0)*%
%TF.CreationDate,2023-03-25T14:20:40+00:00*%
%TF.ProjectId,connector,636f6e6e-6563-4746-9f72-2e6b69636164,rev?*%
%TF.SameCoordinates,Original*%
%TF.FileFunction,Copper,L3,Inr*%
%TF.FilePolarity,Positive*%
%FSLAX46Y46*%
G04 Gerber Fmt 4.6, Leading zero omitted, Abs format (unit mm)*
G04 Created by KiCad (PCBNEW (7.0.0)) date 2023-03-25 14:20:40*
%MOMM*%
%LPD*%
G01*
G04 APERTURE LIST*
%TA.AperFunction,ViaPad*%
%ADD10C,0.800000*%
%TD*%
%TA.AperFunction,Conductor*%
%ADD11C,0.250000*%
%TD*%
G04 APERTURE END LIST*
D10*
%TO.N,/~{SE1}*%
X131826000Y-107823000D03*
%TO.N,/WEL*%
X129540000Y-95853500D03*
%TO.N,/A9*%
X123174695Y-75946000D03*
%TO.N,/D4*%
X123784674Y-89503931D03*
X126749500Y-90170000D03*
%TO.N,/D3*%
X144436500Y-89281000D03*
%TO.N,/A19*%
X133947500Y-78702500D03*
%TO.N,Net-(U3-CE#)*%
X127000000Y-107061000D03*
%TO.N,GND*%
X125222000Y-97917000D03*
%TO.N,/D2*%
X123772500Y-96049500D03*
%TO.N,/D1*%
X123724500Y-100487511D03*
%TO.N,/D0*%
X147447000Y-101261500D03*
X123000000Y-101219000D03*
%TO.N,/A0*%
X122555000Y-97536000D03*
%TO.N,/A1*%
X149860000Y-100330000D03*
X122399963Y-102018350D03*
%TO.N,/A2*%
X151257000Y-104136201D03*
X121724500Y-102755066D03*
%TO.N,/A3*%
X152654000Y-104775000D03*
X120899722Y-103319642D03*
%TO.N,/A11*%
X132170000Y-86068500D03*
%TO.N,/A8*%
X133768500Y-86068500D03*
%TO.N,/ROE*%
X130302000Y-71501000D03*
%TO.N,/A11*%
X131445000Y-76182392D03*
X126073500Y-76454000D03*
%TO.N,/D7*%
X127343500Y-94712313D03*
%TO.N,/~{SE1}*%
X127127000Y-76099500D03*
X127889000Y-71501000D03*
%TO.N,/D6*%
X148336500Y-100292500D03*
X126365000Y-100711000D03*
X125476000Y-71501000D03*
%TO.N,/D3*%
X124206000Y-71501000D03*
%TO.N,/~{SE1}*%
X126492000Y-87211500D03*
X130048500Y-87503000D03*
X132080000Y-102616000D03*
%TO.N,Net-(D1-K)*%
X131318000Y-112776000D03*
X129159000Y-102832500D03*
%TO.N,/D5*%
X146341500Y-89027000D03*
%TO.N,/D6*%
X148336000Y-90118000D03*
%TO.N,/D4*%
X145885500Y-90043000D03*
X126746000Y-95631000D03*
X122936000Y-71501000D03*
%TO.N,/A17*%
X119544500Y-83185000D03*
X120396000Y-71501000D03*
%TO.N,/D7*%
X126619000Y-71501000D03*
X149061000Y-103619500D03*
X128000000Y-102743000D03*
X148881500Y-88677500D03*
%TO.N,/A10*%
X124199500Y-88523890D03*
%TO.N,Net-(U3-CE#)*%
X128038181Y-90925459D03*
X150780500Y-90297500D03*
%TO.N,/A10*%
X151421500Y-88900000D03*
%TO.N,GND*%
X129540000Y-106807000D03*
%TO.N,/ROE*%
X153320500Y-90551000D03*
%TO.N,/A11*%
X153961500Y-87625109D03*
%TO.N,/A9*%
X133620500Y-73914000D03*
X123772500Y-90551000D03*
X155231500Y-90297000D03*
%TO.N,/A8*%
X156813500Y-87824799D03*
%TO.N,/D3*%
X124785632Y-89347562D03*
X144526000Y-106553000D03*
%TO.N,/D4*%
X145796000Y-106553000D03*
%TO.N,/D6*%
X148336000Y-106426000D03*
%TO.N,/D7*%
X149606000Y-106553000D03*
%TO.N,/A10*%
X152146000Y-106680000D03*
%TO.N,/A11*%
X154686000Y-106553000D03*
%TO.N,/A9*%
X156083000Y-106680000D03*
%TO.N,/A8*%
X157226000Y-106680000D03*
%TO.N,/D5*%
X147066000Y-106553000D03*
X146177000Y-97536000D03*
X127224500Y-97744227D03*
X122555000Y-95885000D03*
X121666000Y-71501000D03*
%TO.N,/A8*%
X135382000Y-71628000D03*
X132842000Y-76581000D03*
X122659057Y-76999500D03*
%TO.N,/ROE*%
X153416000Y-106680000D03*
X153416000Y-100076000D03*
X129188232Y-100483500D03*
%TO.N,/A13*%
X128524000Y-75946000D03*
X136312500Y-86068500D03*
X136646000Y-74803000D03*
%TO.N,/WEL*%
X138261500Y-86680652D03*
X136312500Y-95853500D03*
X137896000Y-71501000D03*
%TO.N,/A13*%
X158623000Y-106680000D03*
X159004000Y-87084500D03*
%TO.N,/WEL*%
X159766000Y-106680000D03*
X159328297Y-88392000D03*
%TO.N,Net-(JP1-A)*%
X150876000Y-110363000D03*
X128270000Y-109093000D03*
%TO.N,/A14*%
X142896000Y-80338500D03*
X127775500Y-81153000D03*
%TO.N,/D2*%
X145796000Y-80682500D03*
X144526000Y-96874500D03*
%TO.N,/D1*%
X147066000Y-80645000D03*
X147074952Y-98768500D03*
%TO.N,/D0*%
X148336000Y-80645000D03*
X147790500Y-97155000D03*
%TO.N,/A0*%
X149606000Y-80682500D03*
X149863949Y-97167548D03*
%TO.N,/A1*%
X151003000Y-80645000D03*
X150421752Y-97996922D03*
%TO.N,/A2*%
X152146000Y-80682500D03*
X151511000Y-99314000D03*
%TO.N,/A3*%
X153416000Y-80645000D03*
X152691500Y-97206089D03*
%TO.N,/A6*%
X121793000Y-77528000D03*
X157226000Y-77089000D03*
%TO.N,/A5*%
X156391548Y-99005451D03*
X155956000Y-80518000D03*
X121724500Y-81661000D03*
%TO.N,/A4*%
X154781500Y-97155000D03*
X154693803Y-81413611D03*
X121031000Y-82931000D03*
%TO.N,/A6*%
X157263500Y-97379313D03*
X157226000Y-80518000D03*
%TO.N,/A7*%
X158623000Y-83666500D03*
X122500000Y-83185000D03*
X157734000Y-98298000D03*
X158496000Y-80645000D03*
%TO.N,/A15*%
X163232000Y-82550000D03*
X128307000Y-83439000D03*
%TO.N,/A12*%
X159808500Y-83216500D03*
X127463541Y-83975267D03*
X159778797Y-97028000D03*
X159766000Y-80391000D03*
%TO.N,GND*%
X129540000Y-112395000D03*
X144526000Y-80645000D03*
X140208000Y-81788000D03*
X142875000Y-95250000D03*
X133731000Y-88519000D03*
X123190000Y-103917500D03*
X145415000Y-71628000D03*
X139954000Y-97790000D03*
X144145000Y-71628000D03*
%TO.N,/A14*%
X161228297Y-96974895D03*
X142748000Y-82581500D03*
X161069141Y-81229798D03*
%TO.N,/A15*%
X163322000Y-75311000D03*
X162306000Y-106299000D03*
X162433000Y-90297000D03*
%TO.N,/A16*%
X129286000Y-83164500D03*
X162306000Y-97028000D03*
X162507500Y-80772000D03*
%TO.N,/A17*%
X130265487Y-85468748D03*
X161163000Y-86614000D03*
X161344954Y-106573585D03*
%TO.N,/A19*%
X134239000Y-106172000D03*
X118872000Y-78359000D03*
X131445000Y-78702500D03*
%TO.N,/A18*%
X130302000Y-77978000D03*
X163957000Y-80518000D03*
X163957000Y-77216000D03*
X163957000Y-96901000D03*
X118571123Y-76962000D03*
%TD*%
D11*
%TO.N,/~{SE1}*%
X131826000Y-102870000D02*
X131826000Y-107823000D01*
X132080000Y-102616000D02*
X131826000Y-102870000D01*
%TO.N,/A10*%
X150495000Y-102420848D02*
X150495000Y-105029000D01*
X150495000Y-105029000D02*
X152146000Y-106680000D01*
X150786000Y-102129848D02*
X150495000Y-102420848D01*
X151505500Y-97938479D02*
X150786000Y-98657979D01*
X151505500Y-88984000D02*
X151505500Y-97938479D01*
X151421500Y-88900000D02*
X151505500Y-88984000D01*
X150786000Y-98657979D02*
X150786000Y-102129848D01*
%TO.N,/A2*%
X151511000Y-103882201D02*
X151511000Y-99314000D01*
X151257000Y-104136201D02*
X151511000Y-103882201D01*
%TO.N,/ROE*%
X128815000Y-100110268D02*
X129188232Y-100483500D01*
X128815000Y-84799000D02*
X128815000Y-100110268D01*
X130011000Y-83603000D02*
X128815000Y-84799000D01*
X129577000Y-77677695D02*
X129577000Y-82439500D01*
X129577000Y-82439500D02*
X129586305Y-82439500D01*
X130048000Y-77206695D02*
X129577000Y-77677695D01*
X130048000Y-71755000D02*
X130048000Y-77206695D01*
X129586305Y-82439500D02*
X130011000Y-82864195D01*
X130302000Y-71501000D02*
X130048000Y-71755000D01*
X130011000Y-82864195D02*
X130011000Y-83603000D01*
%TO.N,Net-(U3-CE#)*%
X128068500Y-100001500D02*
X127000000Y-101070000D01*
X128068500Y-90955778D02*
X128068500Y-100001500D01*
X127000000Y-101070000D02*
X127000000Y-107061000D01*
X128038181Y-90925459D02*
X128068500Y-90955778D01*
%TO.N,/D7*%
X126540695Y-71579305D02*
X126619000Y-71501000D01*
X126423000Y-71579305D02*
X126540695Y-71579305D01*
X125249195Y-87276195D02*
X125249195Y-72753110D01*
X127474500Y-90470305D02*
X127474500Y-89501500D01*
X127474500Y-89501500D02*
X125249195Y-87276195D01*
X125249195Y-72753110D02*
X126423000Y-71579305D01*
X127127000Y-94495813D02*
X127127000Y-90817805D01*
X127343500Y-94712313D02*
X127127000Y-94495813D01*
X127127000Y-90817805D02*
X127474500Y-90470305D01*
%TO.N,/D4*%
X126619000Y-90300500D02*
X126749500Y-90170000D01*
X126746000Y-95631000D02*
X126619000Y-95504000D01*
X126619000Y-95504000D02*
X126619000Y-90300500D01*
%TO.N,/WEL*%
X137922000Y-94244000D02*
X137922000Y-71527000D01*
X137922000Y-71527000D02*
X137896000Y-71501000D01*
X136312500Y-95853500D02*
X137922000Y-94244000D01*
%TO.N,/A1*%
X149860000Y-100330000D02*
X149860000Y-98558674D01*
X149860000Y-98558674D02*
X150421752Y-97996922D01*
%TO.N,/D0*%
X147918000Y-97282500D02*
X147790500Y-97155000D01*
X147918000Y-99487305D02*
X147918000Y-97282500D01*
X147447000Y-99958305D02*
X147918000Y-99487305D01*
X147447000Y-101261500D02*
X147447000Y-99958305D01*
%TO.N,/D1*%
X147074952Y-98768500D02*
X147066000Y-98759548D01*
X147066000Y-98759548D02*
X147066000Y-80645000D01*
%TO.N,/~{SE1}*%
X126492000Y-77060805D02*
X126492000Y-87211500D01*
X127127000Y-76099500D02*
X127127000Y-76425805D01*
X127889000Y-73152000D02*
X127889000Y-71501000D01*
X127127000Y-73914000D02*
X127889000Y-73152000D01*
X127127000Y-76099500D02*
X127127000Y-73914000D01*
X127127000Y-76425805D02*
X126492000Y-77060805D01*
%TO.N,/D5*%
X120269000Y-77851000D02*
X119745623Y-77327623D01*
X120269000Y-93599000D02*
X120269000Y-77851000D01*
X119745623Y-77327623D02*
X119745623Y-73421377D01*
X122555000Y-95885000D02*
X120269000Y-93599000D01*
X119745623Y-73421377D02*
X121666000Y-71501000D01*
%TO.N,Net-(D1-K)*%
X129159000Y-106162695D02*
X129159000Y-102832500D01*
X128815000Y-107107305D02*
X128815000Y-106506695D01*
X129159000Y-107451305D02*
X128815000Y-107107305D01*
X128815000Y-106506695D02*
X129159000Y-106162695D01*
X131318000Y-112776000D02*
X129159000Y-110617000D01*
X129159000Y-110617000D02*
X129159000Y-107451305D01*
%TO.N,/D4*%
X123899195Y-86721354D02*
X123899195Y-72464195D01*
X123899195Y-72464195D02*
X122936000Y-71501000D01*
X123474500Y-87146049D02*
X123899195Y-86721354D01*
X123474500Y-89193757D02*
X123474500Y-87146049D01*
X123784674Y-89503931D02*
X123474500Y-89193757D01*
%TO.N,/D3*%
X124349195Y-71644195D02*
X124206000Y-71501000D01*
X124924500Y-88224292D02*
X124349195Y-87648987D01*
X124924500Y-89208694D02*
X124924500Y-88224292D01*
X124349195Y-87648987D02*
X124349195Y-71644195D01*
X124785632Y-89347562D02*
X124924500Y-89208694D01*
%TO.N,/D6*%
X124799195Y-72177805D02*
X125476000Y-71501000D01*
X124799195Y-87462591D02*
X124799195Y-72177805D01*
X125603000Y-89154000D02*
X125374500Y-88925500D01*
X125947000Y-97616695D02*
X125603000Y-97272695D01*
X125947000Y-100293000D02*
X125947000Y-97616695D01*
X125603000Y-97272695D02*
X125603000Y-89154000D01*
X125374500Y-88925500D02*
X125374500Y-88037896D01*
X126365000Y-100711000D02*
X125947000Y-100293000D01*
X125374500Y-88037896D02*
X124799195Y-87462591D01*
%TO.N,/A13*%
X137160000Y-85221000D02*
X136312500Y-86068500D01*
X137160000Y-75317000D02*
X137160000Y-85221000D01*
X136646000Y-74803000D02*
X137160000Y-75317000D01*
%TO.N,/A8*%
X132842000Y-76086333D02*
X132842000Y-76581000D01*
X135382000Y-73546333D02*
X132842000Y-76086333D01*
X135382000Y-71628000D02*
X135382000Y-73546333D01*
%TO.N,/A17*%
X119295623Y-77667818D02*
X119295623Y-72601377D01*
X119634000Y-78006195D02*
X119295623Y-77667818D01*
X119634000Y-83095500D02*
X119634000Y-78006195D01*
X119544500Y-83185000D02*
X119634000Y-83095500D01*
X119295623Y-72601377D02*
X120396000Y-71501000D01*
%TO.N,/A11*%
X132170000Y-76925000D02*
X132170000Y-86068500D01*
X131445000Y-76182392D02*
X131445000Y-76200000D01*
X131445000Y-76200000D02*
X132170000Y-76925000D01*
%TO.N,/A8*%
X133223000Y-76962000D02*
X132842000Y-76581000D01*
X133223000Y-85523000D02*
X133223000Y-76962000D01*
X133768500Y-86068500D02*
X133223000Y-85523000D01*
%TO.N,/D3*%
X144018000Y-89408000D02*
X143891000Y-89408000D01*
X143801000Y-105828000D02*
X144526000Y-106553000D01*
X143801000Y-89498000D02*
X143801000Y-105828000D01*
X143891000Y-89408000D02*
X143801000Y-89498000D01*
%TO.N,/A19*%
X134493000Y-79248000D02*
X134493000Y-105918000D01*
X134493000Y-105918000D02*
X134239000Y-106172000D01*
X133947500Y-78702500D02*
X134493000Y-79248000D01*
%TO.N,/D2*%
X145161000Y-86944195D02*
X145161000Y-81317500D01*
X145161000Y-81317500D02*
X145796000Y-80682500D01*
X145251000Y-87034195D02*
X145161000Y-86944195D01*
X145251000Y-87634805D02*
X145251000Y-87034195D01*
X145161000Y-87724805D02*
X145251000Y-87634805D01*
X144679500Y-96874500D02*
X145161000Y-96393000D01*
X145161000Y-96393000D02*
X145161000Y-87724805D01*
X144526000Y-96874500D02*
X144679500Y-96874500D01*
%TO.N,/A3*%
X152596000Y-81465000D02*
X153416000Y-80645000D01*
X152596000Y-97110589D02*
X152596000Y-81465000D01*
X152691500Y-97206089D02*
X152596000Y-97110589D01*
X152654000Y-97243589D02*
X152654000Y-104775000D01*
X152691500Y-97206089D02*
X152654000Y-97243589D01*
%TO.N,/A2*%
X152146000Y-89200805D02*
X152146000Y-80682500D01*
X151966500Y-89380305D02*
X152146000Y-89200805D01*
X151511000Y-99314000D02*
X151966500Y-98858500D01*
X151966500Y-98858500D02*
X151966500Y-89380305D01*
%TO.N,/ROE*%
X153416000Y-100076000D02*
X153416000Y-106680000D01*
X153228697Y-90642803D02*
X153320500Y-90551000D01*
X153228697Y-96575996D02*
X153228697Y-90642803D01*
X153416000Y-96763299D02*
X153228697Y-96575996D01*
X153416000Y-100076000D02*
X153416000Y-96763299D01*
%TO.N,/A11*%
X154686000Y-98425000D02*
X154686000Y-106553000D01*
X154045500Y-97784500D02*
X154686000Y-98425000D01*
X154045500Y-87709109D02*
X154045500Y-97784500D01*
X153961500Y-87625109D02*
X154045500Y-87709109D01*
%TO.N,/~{SE1}*%
X130810000Y-88264500D02*
X130048500Y-87503000D01*
X132080000Y-102616000D02*
X130810000Y-101346000D01*
X130810000Y-101346000D02*
X130810000Y-88264500D01*
%TO.N,/D6*%
X148336000Y-103319195D02*
X148336000Y-106426000D01*
X148515500Y-103139695D02*
X148336000Y-103319195D01*
X148336000Y-90118000D02*
X148515500Y-90297500D01*
X148515500Y-90297500D02*
X148515500Y-103139695D01*
%TO.N,/D5*%
X146177000Y-97536000D02*
X146610500Y-97102500D01*
X146610500Y-89296000D02*
X146341500Y-89027000D01*
X146177000Y-105664000D02*
X147066000Y-106553000D01*
X146177000Y-97536000D02*
X146177000Y-105664000D01*
X146610500Y-97102500D02*
X146610500Y-89296000D01*
%TO.N,/D4*%
X144653000Y-97909091D02*
X144653000Y-105410000D01*
X144653000Y-105410000D02*
X145796000Y-106553000D01*
X145885500Y-96676591D02*
X144653000Y-97909091D01*
X145885500Y-90043000D02*
X145885500Y-96676591D01*
%TO.N,/A8*%
X157226000Y-98815305D02*
X157226000Y-106680000D01*
X156538500Y-90994000D02*
X156538500Y-98127805D01*
X156813500Y-90719000D02*
X156538500Y-90994000D01*
X156813500Y-87824799D02*
X156813500Y-90719000D01*
X156538500Y-98127805D02*
X157226000Y-98815305D01*
%TO.N,/A7*%
X157988000Y-98044000D02*
X157734000Y-98298000D01*
X158623000Y-80772000D02*
X158496000Y-80645000D01*
X158623000Y-83666500D02*
X158623000Y-85344000D01*
X158623000Y-85344000D02*
X157988000Y-85979000D01*
X157988000Y-85979000D02*
X157988000Y-98044000D01*
X158623000Y-83666500D02*
X158623000Y-80772000D01*
%TO.N,/A12*%
X159808500Y-80433500D02*
X159766000Y-80391000D01*
X159808500Y-83216500D02*
X159808500Y-80433500D01*
X160053297Y-96753500D02*
X159778797Y-97028000D01*
X160053297Y-87975178D02*
X160053297Y-96753500D01*
X159808500Y-87730381D02*
X160053297Y-87975178D01*
X159808500Y-87129771D02*
X159808500Y-87730381D01*
X160147000Y-86791271D02*
X159808500Y-87129771D01*
X160147000Y-83555000D02*
X160147000Y-86791271D01*
X159808500Y-83216500D02*
X160147000Y-83555000D01*
%TO.N,/A15*%
X163232000Y-75401000D02*
X163322000Y-75311000D01*
X163232000Y-82550000D02*
X163232000Y-75401000D01*
X162560000Y-90170000D02*
X162433000Y-90297000D01*
X162560000Y-89789000D02*
X162560000Y-90170000D01*
X163232000Y-89117000D02*
X162560000Y-89789000D01*
X163232000Y-82550000D02*
X163232000Y-89117000D01*
%TO.N,/WEL*%
X160655000Y-105791000D02*
X159766000Y-106680000D01*
X160655000Y-98929508D02*
X160655000Y-105791000D01*
X159053797Y-97328305D02*
X160655000Y-98929508D01*
X159053797Y-88666500D02*
X159053797Y-97328305D01*
X159328297Y-88392000D02*
X159053797Y-88666500D01*
%TO.N,/A13*%
X158603797Y-106660797D02*
X158623000Y-106680000D01*
X158603797Y-87484703D02*
X158603797Y-106660797D01*
X159004000Y-87084500D02*
X158603797Y-87484703D01*
%TO.N,/A17*%
X160503297Y-87273703D02*
X160503297Y-97275200D01*
X161344954Y-106234741D02*
X161344954Y-106573585D01*
X161163000Y-86614000D02*
X160503297Y-87273703D01*
X161671000Y-98442903D02*
X161671000Y-105908695D01*
X160503297Y-97275200D02*
X161671000Y-98442903D01*
X161671000Y-105908695D02*
X161344954Y-106234741D01*
%TO.N,/A14*%
X162052000Y-89016299D02*
X161228297Y-89840002D01*
X161228297Y-89840002D02*
X161228297Y-96974895D01*
X162052000Y-82212657D02*
X162052000Y-89016299D01*
X161069141Y-81229798D02*
X162052000Y-82212657D01*
%TO.N,/A16*%
X161708000Y-89996695D02*
X161708000Y-96430000D01*
X162507500Y-83485805D02*
X162560000Y-83538305D01*
X162560000Y-83538305D02*
X162560000Y-89144695D01*
X162560000Y-89144695D02*
X161708000Y-89996695D01*
X161708000Y-96430000D02*
X162306000Y-97028000D01*
X162507500Y-80772000D02*
X162507500Y-83485805D01*
%TO.N,/A4*%
X154686000Y-97059500D02*
X154781500Y-97155000D01*
X154506500Y-89996695D02*
X154506500Y-90597305D01*
X154686000Y-89817195D02*
X154506500Y-89996695D01*
X154686000Y-81421414D02*
X154686000Y-89817195D01*
X154693803Y-81413611D02*
X154686000Y-81421414D01*
X154506500Y-90597305D02*
X154686000Y-90776805D01*
X154686000Y-90776805D02*
X154686000Y-97059500D01*
%TO.N,/A6*%
X157538000Y-97104813D02*
X157263500Y-97379313D01*
X157734000Y-85596604D02*
X157538000Y-85792604D01*
X157734000Y-81026000D02*
X157734000Y-85596604D01*
X157226000Y-80518000D02*
X157734000Y-81026000D01*
X157538000Y-85792604D02*
X157538000Y-97104813D01*
%TO.N,/A5*%
X155956000Y-80518000D02*
X155956000Y-98569903D01*
X155956000Y-98569903D02*
X156391548Y-99005451D01*
%TO.N,/A1*%
X150056000Y-96442548D02*
X150056000Y-81592000D01*
X150240816Y-97815986D02*
X150588949Y-97467853D01*
X150588949Y-97467853D02*
X150588949Y-96867243D01*
X150421752Y-97996922D02*
X150240816Y-97815986D01*
X150588949Y-96867243D02*
X150164254Y-96442548D01*
X150164254Y-96442548D02*
X150056000Y-96442548D01*
X150056000Y-81592000D02*
X151003000Y-80645000D01*
%TO.N,/D0*%
X147516000Y-81465000D02*
X148336000Y-80645000D01*
X147516000Y-96880500D02*
X147516000Y-81465000D01*
X147790500Y-97155000D02*
X147516000Y-96880500D01*
%TO.N,/D7*%
X149061000Y-88857000D02*
X149061000Y-106008000D01*
X149061000Y-106008000D02*
X149606000Y-106553000D01*
X148881500Y-88677500D02*
X149061000Y-88857000D01*
%TO.N,/A0*%
X149606000Y-96909599D02*
X149606000Y-80682500D01*
X149863949Y-97167548D02*
X149606000Y-96909599D01*
%TO.N,/A9*%
X156210000Y-99849208D02*
X156210000Y-106553000D01*
X155506000Y-99145208D02*
X156210000Y-99849208D01*
X155506000Y-90571500D02*
X155506000Y-99145208D01*
X155231500Y-90297000D02*
X155506000Y-90571500D01*
X156210000Y-106553000D02*
X156083000Y-106680000D01*
%TO.N,/A15*%
X163031000Y-90895000D02*
X163031000Y-105574000D01*
X162433000Y-90297000D02*
X163031000Y-90895000D01*
X163031000Y-105574000D02*
X162306000Y-106299000D01*
%TO.N,/A18*%
X163957000Y-80518000D02*
X163957000Y-96901000D01*
%TD*%
M02*
