M48
; DRILL file {KiCad (7.0.0)} date Sat Mar 25 14:20:45 2023
; FORMAT={-:-/ absolute / inch / decimal}
; #@! TF.CreationDate,2023-03-25T14:20:45+00:00
; #@! TF.GenerationSoftware,Kicad,Pcbnew,(7.0.0)
; #@! TF.FileFunction,Plated,1,4,PTH
FMAT,2
INCH
; #@! TA.AperFunction,Plated,PTH,ViaDrill
T1C0.0157
%
G90
G05
T1
X4.6682Y-3.03
X4.68Y-3.085
X4.7065Y-3.275
X4.74Y-2.815
X4.7598Y-4.0677
X4.765Y-3.265
X4.79Y-2.815
X4.7923Y-3.215
X4.7923Y-4.0455
X4.795Y-3.0523
X4.8189Y-4.0165
X4.8228Y-3.275
X4.825Y-3.775
X4.825Y-3.84
X4.8291Y-3.0315
X4.84Y-2.815
X4.8425Y-3.985
X4.8494Y-2.99
X4.85Y-4.0912
X4.871Y-3.9562
X4.8729Y-3.565
X4.8729Y-3.7815
X4.8734Y-3.5238
X4.8897Y-3.4852
X4.89Y-2.815
X4.9128Y-3.5176
X4.93Y-3.855
X4.94Y-2.815
X4.9635Y-3.01
X4.975Y-3.965
X4.98Y-3.4335
X4.985Y-2.815
X4.99Y-3.765
X4.9901Y-3.55
X5.0Y-4.215
X5.005Y-2.996
X5.0088Y-3.8482
X5.0135Y-3.7288
X5.0182Y-3.3061
X5.0305Y-3.195
X5.035Y-2.815
X5.0394Y-4.045
X5.0409Y-3.5797
X5.05Y-4.295
X5.0515Y-3.285
X5.06Y-2.99
X5.085Y-4.0485
X5.0862Y-3.956
X5.09Y-3.2742
X5.1Y-3.7738
X5.1Y-4.205
X5.1Y-4.425
X5.12Y-3.445
X5.1286Y-3.3649
X5.13Y-2.815
X5.13Y-3.07
X5.17Y-4.44
X5.175Y-2.9993
X5.175Y-3.0985
X5.19Y-4.245
X5.2Y-4.04
X5.2035Y-3.3885
X5.23Y-3.015
X5.2606Y-2.91
X5.265Y-3.485
X5.2665Y-3.3885
X5.2735Y-3.0985
X5.285Y-4.18
X5.33Y-2.82
X5.3666Y-3.3885
X5.3666Y-3.7738
X5.3798Y-2.945
X5.429Y-2.815
X5.4434Y-3.4126
X5.51Y-3.85
X5.52Y-3.22
X5.62Y-3.2512
X5.625Y-3.75
X5.6258Y-3.1629
X5.675Y-2.82
X5.6865Y-3.515
X5.69Y-3.175
X5.69Y-3.814
X5.69Y-4.195
X5.725Y-2.82
X5.74Y-3.1765
X5.74Y-4.195
X5.7435Y-3.545
X5.755Y-3.84
X5.7615Y-3.505
X5.79Y-3.175
X5.79Y-4.195
X5.7904Y-3.8885
X5.805Y-3.9867
X5.8185Y-3.825
X5.84Y-3.175
X5.84Y-3.548
X5.84Y-4.19
X5.84Y-3.9485
X5.8615Y-3.4912
X5.8685Y-4.0795
X5.89Y-3.1765
X5.89Y-4.195
X5.9Y-3.95
X5.9002Y-3.8255
X5.9221Y-3.8581
X5.9362Y-3.555
X5.94Y-4.345
X5.945Y-3.175
X5.955Y-4.0999
X5.9615Y-3.5
X5.965Y-3.91
X5.99Y-3.1765
X5.99Y-4.2
X6.01Y-4.125
X6.0115Y-3.827
X6.0362Y-3.565
X6.04Y-3.175
X6.04Y-3.94
X6.04Y-4.2
X6.0615Y-3.4498
X6.09Y-4.195
X6.0903Y-3.2053
X6.0938Y-3.825
X6.1115Y-3.555
X6.14Y-3.17
X6.145Y-4.2
X6.1571Y-3.8979
X6.1738Y-3.4577
X6.19Y-3.035
X6.19Y-3.17
X6.19Y-4.2
X6.1915Y-3.8338
X6.21Y-3.87
X6.24Y-3.175
X6.245Y-3.294
X6.245Y-4.2
X6.26Y-3.4285
X6.2728Y-3.48
X6.29Y-3.165
X6.29Y-4.2
X6.2905Y-3.82
X6.2917Y-3.2762
X6.3413Y-3.198
X6.345Y-3.41
X6.3476Y-3.8179
X6.3522Y-4.1958
X6.39Y-3.82
X6.39Y-4.185
X6.395Y-3.555
X6.3979Y-3.18
X6.4265Y-3.25
X6.43Y-2.965
X6.455Y-3.04
X6.455Y-3.17
X6.455Y-3.815
T0
M30
